<svg version="1.2" xmlns="http://www.w3.org/2000/svg" viewBox="0 0 1587 1587" width="1587" height="1587"><style>.a{fill:#f6e8e8}</style><path fill-rule="evenodd" class="a" d="m792.5 1440c-358.1 0-647.5-289.4-647.5-647.5 0-358.1 289.4-647.5 647.5-647.5 358.1 0 647.5 289.4 647.5 647.5 0 358.1-289.4 647.5-647.5 647.5zm40.9-1272c-5 1.6-12.6 7.2-15.6 11.5-1.9 2.8-8.9 23.5-23 68.3-11.2 35.3-20.5 64.2-20.8 64.2-0.3 0-18.9-21.4-41.4-47.5-22.5-26.2-42.3-48.7-44-50-10.4-7.9-26-7.2-36 1.6-6.8 6-9.7 12.8-9.8 23-0.1 7 0.8 11.9 5 28.9 10.5 42.1 15.1 70.8 15.9 99 0.6 23.6-1 36.1-6.2 46.6-1.9 4-4.5 7.8-5.7 8.6-1.3 0.8-5.2 2-8.7 2.7-11.1 2.2-41 10.7-59.4 17.1-46.6 16-83 35.4-119.9 64-12.1 9.4-41 38.7-51.2 52-28.6 37.3-48.2 81.8-58.1 131.4-5 25.4-6.7 42.9-7.2 76.3-0.8 43.5 1.4 72 6.2 83 4 8.9 9 12.8 30.5 23.5 94.7 47 178 71.5 265 77.9 16.1 1.2 58.5 0.8 76-0.7l7.5-0.7 7.9 11.9c19 28.7 42 55.6 60.1 70.4 46.8 38.2 97.9 42.4 144.7 11.7 22.2-14.5 46.4-38.8 65.7-66.2 8.7-12.3 21.9-33 26.4-41.3 7.1-13.3 6.2-25.3-2.7-35-7.8-8.5-18.6-11.8-28.9-8.8-9.3 2.7-12.8 6.3-24.3 24.9-31.8 51.7-62.5 81.8-89.3 87.6-7 1.5-17.5 1.4-23.8-0.3-16.4-4.4-34.5-17.6-52.4-38.2-8.3-9.5-20.9-26.1-20.9-27.4 0-0.3 3.3-1.4 7.2-2.5 43-10.9 91.7-32.4 134.3-59.2 11.8-7.5 37.3-31.3 46.4-43.3 19.8-26.3 25.4-54.7 16.5-83.3-4.5-14.2-14.2-31.2-24.3-42.3-8.1-8.9-51.6-24.6-89.5-32.4-23.1-4.7-50.6-6.3-69.6-4-39.8 4.9-70.9 26.2-88.2 60.4-13.4 26.6-19.4 63.8-16.9 106.1 1 17.6 2.3 30 4.7 46.6l0.6 4.7-11.8 0.7c-15.9 1-52.5 0-70.4-2-62.8-6.9-125.5-25.1-195-56.7-27.9-12.7-28.6-13.1-29.3-17.5-0.4-2.1-1-13.2-1.3-24.8-1.9-60 7.9-111.7 29.2-154.4 12.3-24.7 25.9-43.4 45.6-62.8 39.2-38.7 90.2-65 161.2-83.4 20.2-5.2 19.1-4.7 39.6-18.5 10.3-7 21.2-21.1 26.9-34.8 3.8-9.2 7.7-25.1 9.1-37.1 1.2-11.3 1.3-35.9 0-48.9-0.5-5.5-0.8-10.1-0.6-10.3 0.1-0.2 10.5 11.6 23 26.2 27.2 31.7 29.6 33.8 40.8 35.1 8.9 1 15.9-1.5 22.9-8.5l5.7-5.8 7.6-23.4c4.1-12.9 9.6-30.2 12.2-38.6 2.7-8.4 4.9-15.1 5-15 0.1 0.1 2.8 14.6 5.9 32.2 3.1 17.6 6.5 33.9 7.5 36.2 2.3 5.2 8.3 11.1 14.6 14.3 3.7 1.8 6.6 2.4 11.5 2.4 6 0.1 7.6-0.4 15.5-4.4 8.1-4.2 10.8-6.5 35.8-30.6 14.9-14.4 27.2-26.1 27.4-25.9 0.1 0.1-4.7 28.5-10.9 63.1-12.1 69-12.4 71.1-7.9 82.8 2.5 6.6 8.6 13.9 14 16.6 1.9 1 11.5 5.2 21.2 9.4 103 44 174.3 107.1 213.8 188.8 26.3 54.4 39.1 116.3 39 187.8-0.1 26-0.4 30-5 54.5-23.7 129.1-73 213.6-152.1 261-65.8 39.4-150.5 52.3-261.4 40-28.9-3.2-68.2-13.3-104.8-27-62.5-23.3-121.7-56.7-185.3-104.6-12.6-9.4-24.5-18-26.4-19-11.7-6.1-27.2-3.1-36 6.8-8.4 9.6-10.2 22.3-4.6 33.8 3.3 6.7 6.6 9.6 33.9 30.1 87.6 65.7 175 109.3 263.2 131.3 84.6 21.1 178.5 21.3 258.2 0.5 101.8-26.5 177.8-88.6 225.8-184.4 21.6-43.2 35.8-86.3 47-142.8 2.5-12.5 5.3-25.6 6.2-29.2 1.5-5.6 1.7-12.3 1.8-49.5 0-45.2-0.5-53.1-5.1-85.5-9.7-68.2-34-131.4-70.6-183.8-36.3-51.9-86.4-97-146.3-131.7-13.6-7.9-45.8-24.3-57.9-29.6-5.4-2.3-10-4.8-10.2-5.4-0.3-0.6 6.8-42.3 15.7-92.6 15.7-88.8 16.1-91.6 14.9-97.4-2.3-11.4-5.1-18.4-9.2-22.6-8.8-9-22.3-11.7-33-6.6-4.1 2-14.2 11.2-45.6 41.6-22.2 21.5-40.7 39.1-41 39.1-0.4 0-5.5-27-11.4-60-7-39.3-11.4-61.3-12.7-63.7-2.9-5.7-8.8-11.3-14.8-14-6-2.8-18.5-4-23.9-2.3zm94.6 579.1c7 2.7 7.8 3.3 10.7 8.1 5.3 8.9 6.8 13.6 6.8 21.8 0 6.8-0.4 8.2-3.9 14.8-4.1 7.7-17.7 22.5-21.8 23.8-1.3 0.4-7.9 4.2-14.8 8.4-34.2 21.2-60.2 33.7-94 45.1-16.2 5.4-36.9 11.3-37.6 10.6-0.5-0.5-3.4-22.3-4.4-33.2-1.5-16-1.2-43.3 0.5-55.4 5.7-40.3 22.4-59.3 55.5-63.1 24.3-2.8 66.2 5 103 19.1zm-520 216q-1.9 0.9-3.9 1.7-1.9 0.9-3.9 1.7-1.9 0.9-3.8 1.7-2 0.9-3.9 1.7l-4 1.8-4.4-3.3c-2.4-1.9-5-3.4-5.7-3.4-1.5 0-7.4 6.9-7.4 8.7 0 0.7 0.8 1.7 1.7 2.2 2.5 1.5 1.3 2.1-13.7 7.6-18.2 6.7-16.2 6.8-28.1-1.6-17.8-12.5-30.5-17.6-36.6-14.7-3.9 1.8-4 5.4-0.6 12.4 3.4 7 10.7 14.5 24.1 24.8 5.6 4.4 10.2 8.4 10.2 9 0 1.8-3 24.7-3.6 27.8-0.5 2.4-0.9 2.6-3.3 2.2-2.4-0.5-3.3 0-5.5 2.8-1.4 1.9-2.6 4.2-2.6 5.1 0 0.8 2 3.3 4.5 5.4l4.6 3.9-2.2 16.8-2.2 16.9 2.3 1.9c1.3 1 2.7 1.5 3.1 1.1 0.4-0.4 6.2-12.7 13-27.3 10.6-23.1 17.5-36.1 19.7-37.4 0.4-0.2 9.5 5.2 20.2 12 10.7 6.8 19.8 12.5 20.1 12.6 0.3 0.2-0.5 7.7-1.9 16.7l-2.5 16.4 2.4 1.8c3.6 2.8 4.5 2.4 6.9-3.3 4.6-10.9 10.3-22.8 10.9-22.8 0.4 0 4.2 1.4 8.5 3 4.3 1.7 8.1 2.8 8.4 2.5 0.3-0.2-1.8-3.5-4.6-7.2-2.9-3.7-5.2-7.2-5.2-7.8 0-0.6 5.2-5.3 11.5-10.4 6.3-5.1 11.5-9.7 11.5-10.1 0-1-4.9-5-6.1-5-0.5 0-7.3 3.1-15.2 6.8l-14.4 6.9-3.9-3.6c-12.4-11.2-28.3-25.3-29.9-26.5-1.9-1.3-1.8-1.5 0.9-5.4 2.6-3.8 15.6-15.9 40.4-37.7l11.3-9.9-2.3-1.8c-1.3-1-2.5-1.8-2.8-1.8-0.3 0.1-5.7 2.3-12 5.1z"/></svg>