<svg version="1.2" xmlns="http://www.w3.org/2000/svg" viewBox="0 0 2067 648" width="2067" height="648">
	<title>AAF8xuvOsFs_1743787845685</title>
	<style>
		.s0 { fill: #ffffff } 
	</style>
	<path fill-rule="evenodd" class="s0" d="m305.5 68.5c-5 1.8-6.5 3.8-6.5 8.7 0 4.7 2.4 7.3 8.2 8.8 5.8 1.5 8.8 3.6 8.8 6 0 3.3-4.2 4.6-9 2.7l-4-1.5 0.6 2.6c1 4.2 2.3 5.2 6.6 5.2 9.6 0 14.7-8.2 9.6-15.3-0.7-1-4.2-2.8-7.8-4.1-7.3-2.7-9.1-4.5-7-7.1 1.1-1.4 2.5-1.6 6.3-1.2 4.6 0.6 4.8 0.5 4.1-1.6-1.2-4.2-4.3-5.2-9.9-3.2zm68.1 1.1c-3.7 3.7-0.1 10.3 4.9 9 1.4-0.4 3.1-1.7 3.7-3.1 2.3-5.2-4.6-10-8.6-5.9zm69.5-0.6c-4.8 1.1-8.3 4-10.9 9.1-6.1 11.7 2.5 23.7 17.5 24.2l5.8 0.2 2.1-6.5c1.2-3.6 1.9-6.8 1.5-7.2-0.3-0.4-2.8-1.3-5.4-2-4.1-1.1-4.9-1-5.7 0.2-1.5 2.3-1.2 2.9 1.9 4.2 2.4 1.1 2.8 1.6 2 3.5-1.7 4.5-11.4 2-14.4-3.7-1.9-3.6-1.9-6.1-0.1-10.5 1.5-3.6 5.9-6.5 9.9-6.5 3.2 0 9 2.4 10.7 4.4 1.8 2.3 3.7 2 4.4-0.7 1.3-4.9-11.2-10.5-19.3-8.7zm44 31.4c-4 7.4-7.4 13.8-7.5 14.2 0 0.3 0.9 1.3 2.1 2.1 2.1 1.4 2.3 1.2 5.2-3.9 1.7-2.9 3.3-5.8 3.5-6.3 0.2-0.6 1.1-0.3 2.1 0.7 1.2 1.1 2 4 2.5 9.3 0.6 5.7 1.2 8 2.6 9 3.1 2.4 4.3 1.8 3.9-1.8-0.2-1.7-0.6-5.8-0.9-8.9-0.4-5.5-0.4-5.7 2.5-6.7 2-0.7 3.5-2.2 4.5-4.6 2.5-6 0.5-9.6-7.9-14.3-2.1-1.2-4.1-2.2-4.5-2.2-0.4 0-4 6.1-8.1 13.4zm-235-10.5c-1.2 0.8-1.2 3.3 0.1 18.1 0.9 9.4 1.8 17.3 2.1 17.6 0.3 0.3 1.5 0 2.7-0.6 1.8-1 2.1-1.9 1.9-6.3l-0.3-5.2 5.3-2.9 5.3-2.8 4.1 3c3.5 2.4 4.6 2.7 6.5 1.9 1.2-0.5 2.2-1.3 2.2-1.7 0-0.6-27.5-22-28.2-22-0.2 0-0.9 0.4-1.7 0.9zm243.5 7.2c-2.2 3.8-1.5 5.9 2.2 5.9 5.2 0 6.7-3.5 3-7-2.8-2.6-3-2.6-5.2 1.1zm-238.6 3.6c0 1.5 0.3 3.8 0.6 5 0.6 2 0.7 2 3.5 0.5 1.6-1 2.9-1.9 2.9-2.2 0-0.3-1.6-1.8-3.5-3.3l-3.5-2.8zm-50.2 20.6c-5.3 4.5-9.7 8.5-9.8 8.8 0 0.3 0.6 1.4 1.4 2.4 1.3 1.8 1.5 1.7 5.2-1.3 2.1-1.8 4.1-3.2 4.5-3.2 0.6 0 15.4 16.8 17.1 19.4 0.5 0.7 1.5 0.4 2.9-1.1l2.2-2.1-8.9-10.2-8.8-10.2 3.8-3.6c3-2.7 3.7-3.9 2.9-5-0.5-0.9-1.4-1.7-1.9-1.8-0.5-0.2-5.3 3.4-10.6 7.9zm167.2 1.2c0 1.8-0.5 2.5-2 2.5-1.5 0-2 0.7-2 2.5 0 1.8 0.5 2.5 2 2.5q2 0 2 2c0 1.5 0.7 2 2.5 2 1.8 0 2.5-0.5 2.5-1.9 0-1.3 0.8-2.1 2.2-2.3 1.5-0.2 2.4-1.1 2.6-2.5 0.3-1.9-0.2-2.3-2.2-2.3-2.1 0-2.6-0.5-2.6-2.5 0-2-0.5-2.5-2.5-2.5-2 0-2.5 0.5-2.5 2.5zm160 9.6c-8 3.8-14.5 7.4-14.5 8 0 2.8 3.3 3.4 7.7 1.3l4.3-2.1 4.9 4.2 4.9 4.2-1.7 4.9c-1.6 4.7-1.6 4.9 0.3 6.8 1.1 1.1 2.2 1.8 2.5 1.6 0.2-0.3 2.9-7.9 5.9-17 5.4-16.6 5.7-19.1 1.8-18.9-0.9 0-8.1 3.2-16.1 7zm7.7 2.6c-2 0.8-3.7 1.8-3.7 2.2 0 0.4 1.1 1.8 2.5 3.1 1.8 1.8 2.5 2 2.9 0.9 0.2-0.8 0.9-2.9 1.4-4.6 0.6-1.8 1-3.3 0.9-3.2-0.1 0-1.9 0.7-4 1.6zm-177.5 1c-0.7 0.3-1.9 1.8-2.8 3.5-1.4 2.7-1.4 3.4 0.5 9.1 1.2 3.4 2.5 6.8 2.9 7.5 1.2 1.8 6.4 3.1 8.9 2.1 2.1-0.8 2.3-1.4 2.3-9.9 0-7.7-0.3-9.3-2-11-1.9-1.9-6.7-2.6-9.8-1.3zm16 0.9c-2 1.4-2.2 2.3-2.2 10.9 0 6.3 0.4 9.6 1.2 10.1 2 1.2 7 0.5 9-1.3 2.1-1.9 5.7-12.9 5.1-15.4-1.4-5.3-8.4-7.6-13.1-4.3zm-31.5 4.2c-5.2 5.4-4.2 12.2 2.3 15.5 4.1 2 13.5 2.4 12.7 0.5-0.2-0.7-1.7-5.2-3.3-10-2.8-8.5-3-8.8-6-8.8q-3 0-5.7 2.8zm44.9 6c-1.6 4.8-3.1 9.3-3.4 10.1-0.4 1.1 0.7 1.3 5.6 0.9 7.1-0.5 11.2-2.9 12.3-7.2 1.5-5.6-3.3-12.6-8.6-12.6-3 0-3.2 0.2-5.9 8.8zm-221 10.1c-0.9 1-1.6 2-1.6 2.4 0 0.3 5.6 5.1 12.4 10.6 11.7 9.5 12.5 9.9 14 8.2 0.9-0.9 1.6-2 1.6-2.4 0-0.3-5.6-5.1-12.4-10.6-11.7-9.4-12.5-9.9-14-8.2zm398.5 12c-6.9 4.8-12.6 9.1-12.8 9.7-0.2 0.5 0.2 1.8 0.9 2.7 1.2 1.5 2.2 1.1 10.7-4.9 8-5.6 9.3-6.2 8.9-4.2-0.3 1.3-2 8.1-3.9 15.1-3 11.7-3.2 12.9-1.7 14.3 1.5 1.5 2.7 0.9 14.7-7.2 7.1-4.9 13-9.1 13-9.5 0.1-0.3-0.6-1.4-1.3-2.5-1.4-1.8-1.8-1.6-10.6 4.4-5 3.4-9.2 6.2-9.4 6.2-0.2 0 1.3-6.6 3.4-14.6 3.2-11.9 3.6-15 2.7-16.5-0.7-1-1.4-1.9-1.7-1.8-0.3 0-6.1 4-12.9 8.8zm-313.8-6.7c-3 1.4-3.4 2.9-4 12.8-1 16.1 3.5 29 14.7 41.9 3.4 4 5.9 7.5 5.6 7.8-0.9 0.9-7.8-3.7-12.9-8.6-9.3-8.9-13.5-17.7-14.6-30.5-0.7-8.8-2.5-11.1-3.6-4.6-1.1 6.1 1.3 17.6 5.2 26 4.1 8.7 15.2 20.5 22.1 23.6 4.7 2 5.7 4 1.5 2.9-13.3-3.3-25.6-15.4-30.2-29.6-2.3-7.1-7.6-8.9-11.3-3.8-1.9 2.5-1.9 2.6 0.5 9.1 3.2 8.8 6.5 14.3 12.5 20.5 5.9 6.2 13.7 11.3 20.9 13.9 9.3 3.3 5.5 4.7-5.2 1.9-13.2-3.5-25.5-13.4-31.3-25.1-2.4-4.8-5.2-7.2-5.2-4.3 0 3.4 6.9 14.8 12.7 21 7.4 7.9 18.9 14.4 27.3 15.5 6.9 0.9 6.3 2.4-0.9 2.4-12 0-26.3-7-33.4-16.3-3.7-4.9-6.1-6.1-9-4.6-5 2.7-4.9 6.2 0.2 12.7 9.4 11.9 26 20 41.6 20.3 3 0.1 5.5 0.6 5.5 1 0 3.3-20.9 3.2-29.5-0.1-7.5-2.8-15.5-8-19.5-12.7-2.2-2.4-3.5-3.2-4.2-2.5-2.3 2.3 9.5 13.4 19.7 18.5 7 3.6 19.6 6 26.7 5.2 3.3-0.3 5.8-0.2 5.8 0.3 0 1.8-9.6 3.7-18 3.6-9.6-0.2-14.6-1.7-23.4-7.1-4.9-3-6.3-3.4-8.5-2.7-3.6 1.3-4.9 5.5-2.8 8.8 3.7 5.6 19.4 12.3 31.1 13.3 6.4 0.5 17.8-0.7 22.1-2.3 0.8-0.3 1.5-0.2 1.5 0.4 0 1.7-12 6.4-19.1 7.5-9 1.4-18.8-0.1-27.5-4.2-7.2-3.3-8.4-3.6-8.4-2.1 0 1.7 8.8 6.8 15.9 9.2 9.6 3.2 24 3.1 33.3-0.4 7.6-2.8 8.7-2.2 3 1.7-9.1 6.2-25.3 8.3-36.9 4.7-6.8-2.1-9.7-1.5-11.5 2.2-1.7 3.7 1 7 7.4 9.3 4 1.4 8.2 1.8 17.8 1.8 13 0 19-1.4 27.7-6.5 4.5-2.6 4.1-1-0.7 3.3-4.6 4.2-10.3 7.3-17.3 9.4-5.9 1.7-21.9 2-26 0.4-3.8-1.5-4.7-1.4-4.7 0.4 0 1.8 8.2 4.4 16.7 5.2 10.6 1 23.7-2.7 33.8-9.7 6.2-4.2 6-1.5-0.3 4-9.2 8.1-22 12.7-33 11.7-5.5-0.6-6.4-0.4-8.2 1.5-2.5 2.7-2.5 4.9-0.1 7.9 1.8 2.2 2.5 2.4 11.7 2.3 14.6-0.2 24.7-3.8 35.8-12.9 7.5-6.1 7.3-3.4-0.4 4.8-9.4 10.1-22.3 15.7-36.3 15.7-4.3 0-5.8 0.4-5.5 1.3 0.3 0.8 3.3 1.3 9.3 1.5 14.9 0.5 25.9-4.1 37.7-15.6 6.3-6.1 7.5-5.3 2.9 1.9-6.3 9.8-18.7 18-30 19.6-4.2 0.6-5.8 1.4-7.5 3.6-1.9 2.6-2 3-0.6 5.5 2 3.6 7.9 4 16.8 1.3 12.1-3.7 23.2-11.8 30.9-22.6 3.5-4.9 3.7-2.1 0.4 5-1.8 3.9-5.4 9-8.8 12.6-3.9 4.1-5.3 6.3-4.6 7 1.6 1.6 12.1-8.7 16.4-16.1l3.7-6.1 2.6 4.3c1.4 2.4 3.2 7.5 4 11.4 2.8 13.4 7.9 24.3 15.7 33.7 2.2 2.6 3.8 5.1 3.5 5.6-0.9 1.4-16.4 14.3-24.1 20.1-14.3 10.6-20.2 12.3-31.7 9.1-8.9-2.5-13.7-2.6-20.6-0.6-5.1 1.6-5.2 1.7-5.2 5.4v3.8l5.2-1.8c6.9-2.4 9.5-2.4 20.4 0.3 8.9 2.1 9.4 2.1 16 0.5 4.1-1 15.7-6.1 28.3-12.3 11.8-5.8 22.9-10.8 24.8-11.1 4.9-0.8 11.8 2.2 14.2 6.1 2.6 4.2 2.7 11.7 0.3 15.8-3.2 5.5-12.2 8.4-17.5 5.7-4.9-2.5-7.2-8.3-4.6-11.9 0.9-1.3 1-1.2 0.5 0.3-0.6 2 2.5 5.7 4.9 5.7 2.6 0 5.7-3.9 4.9-6.3-2.1-7.5-11-7.3-14.9 0.3-2 3.8-1.9 5.8 0.5 10.5 1.1 2.2 2 4.1 2 4.2 0 0.2-1.2 0.3-2.6 0.3-8.8 0-20.3 7-23.8 14.4-5.2 11 2.4 26.6 13.1 26.6 9.6 0 15.5-9.9 9.3-15.5-2.2-2-6.9-1.6-8.3 0.6-1.6 2.6 0 6.8 2.9 7.5 3.3 0.9 1.2 2.4-3.2 2.4-5.9 0-10.3-7.9-8.4-15.1 2.2-8.2 11-11.9 28.3-11.9h9l-4.6 4.9c-6.8 7.3-9.1 12.4-9.2 20.2 0 5.6 0.4 7.3 3 11.5 7.5 12.1 23 13.8 29.5 3.2 4.2-7 0.7-14.7-6.7-14.8-5.4 0-8.2 6-4.4 9.5 2.5 2.2 6.7 1.3 7.6-1.6 0.4-1.1 0.9-1.8 1.2-1.5 0.3 0.2-0.1 2.1-0.7 4.1-0.9 2.8-2.1 4.1-4.8 5.2-7.8 3.2-17-4.2-17.9-14.5-0.9-9.9 6.9-18.1 17.3-18.2 10.8 0 15.6 6.6 18.2 25 1.6 11.7 3.2 15.7 3.2 8.3 0-4.8 2.5-18.8 4-22.8 2.5-6.5 8.3-10.5 15.5-10.5 17.8 0 23.8 24.3 8 32-3.9 1.9-5 2-8 1-3.6-1.2-6.6-5.2-6.5-8.7 0.1-1.4 0.3-1.4 1 0.4 1.4 3.4 5.9 4.1 8.2 1.3 2.2-2.7 2.2-3.9 0.2-6.8-3.6-5.1-13.4-0.7-13.4 6 0 10.2 10.1 16.3 20.4 12.4 10.1-3.9 16-14.8 13.7-25.2-1.4-6.1-5.8-13.1-11.1-17.6l-3.8-3.3 12.6 0.6c19.7 1 26.2 4.8 26.2 15.4 0 4.5-0.5 5.8-2.9 8.4-3 3.2-7.1 4.1-10.1 2.1-1.3-0.8-1.3-1 0.1-1 5.1 0 6.3-8.4 1.4-9.6-3.3-0.8-5-0.1-7.1 3.1-2.3 3.6-0.9 8.3 3.5 11.2 6.6 4.5 14.2 2.3 19.1-5.4 5.4-8.4 3.6-19.1-4.4-26-4.1-3.6-13.2-7.3-18.2-7.3h-3.5l2.3-3c5.6-7.7-0.4-19.7-8.9-17.5-3 0.7-5.7 4.8-4.8 7.5 1.4 4.6 8 5 9.1 0.4 0.7-3 2.4-2.1 2.4 1.3 0 1.5-1.3 3.8-3.4 5.9-4 4-9 4.5-14.6 1.5-9.8-5.2-9.8-19.9 0-25.3 5.9-3.3 10.2-2 34 9.6 12.5 6.2 24.5 11.3 28.5 12.3 6.7 1.6 7.1 1.6 15.4-0.5 10.1-2.6 13.1-2.7 19.7-0.7 6.5 2 6.4 2 6.4-1.9 0-2.9-0.5-3.6-3.3-4.5-6.8-2.4-13.8-2.4-22.6-0.1-7.3 2-9 2.1-13.3 1.2-7.3-1.7-23.7-13.1-39.4-27.2l-4-3.7 4.3-4.9c7.4-8.4 16.3-28.4 16.3-36.9 0-1.1 1.4-4.4 3.1-7.4l3.1-5.4 3 5.5c3.9 7.3 15.3 18.7 17 17 0.9-0.9 0.3-2.1-2.9-5.2-5.1-4.8-9.4-11.1-11.7-16.9-1.9-4.9-1.2-6.9 1.2-3.1 3.3 5.3 15.1 15.9 20.8 18.8 8 4.1 16.4 6.4 21.6 6 3.6-0.2 4.5-0.8 5.6-3.2 1.3-2.5 1.2-3.1-0.6-5.5-1.4-1.9-3.1-2.7-6.8-3.2-12.3-1.6-26.4-11.2-31.8-21.7-2.9-5.6-1.7-5.4 4.3 0.5 10.6 10.6 23 15.6 37.7 15.1 5.1-0.2 8.9-0.7 8.9-1.3 0-0.5-3.4-1.3-7.5-1.6-15.8-1.2-28.5-7.4-36.5-17.7-5-6.4-4.5-8.2 0.9-3.4 10.3 9 22.4 13.5 36.9 13.6 9.2 0.1 10-0.1 11.8-2.3 2.6-3.2 2.4-5.6-0.7-8-2.1-1.6-3.5-1.9-7.5-1.4-10.7 1.3-25-3.9-34-12.4-5.3-4.9-5.7-7.8-0.6-3.9 9.4 7.1 23 11.1 34.2 10.3 9.1-0.7 17.5-3.3 17.5-5.3 0-1.3-0.6-1.4-2.8-0.9-15.8 4.2-31.6 1.3-44.3-8.1-7.2-5.2-6.2-6.7 1.8-2.7 3.7 1.8 9.2 3.8 12.2 4.3 11.8 2.2 28.7 0.5 34.9-3.6 1.8-1.2 2.2-2.3 2-5.2-0.5-5.4-3.3-6.5-11-4.1-12.8 4-30.9 1.3-39.1-5.9-3.2-2.8-1.7-3 5-0.4 9.4 3.5 23.8 3.6 33.4 0.4 7.1-2.4 15.9-7.5 15.9-9.2 0-1.5-1.3-1.2-8.4 2.1-8.8 4.1-18.5 5.6-27.5 4.2-7.1-1.1-19.1-5.8-19.1-7.5 0-0.6 0.7-0.7 1.5-0.4 0.8 0.3 4.5 1.1 8.2 1.7 13.2 2.3 27.7-0.7 39.2-8.1 7.2-4.7 8.6-7.8 5-11.5-2.9-3.2-4.5-3.1-9.9 0.5-10.5 7-23.7 9.5-35 6.6-9.2-2.4-10.2-3.9-2-3.1 8.6 0.9 20.5-1.6 29-6.1 7.9-4.1 20-15.7 18.3-17.5-0.9-0.9-2.5 0.2-6.4 4.1-6.1 6.1-16.4 11.4-25.4 13.1-5.6 1-16.5 0.6-20-0.7-3.1-1.2-1.3-2.1 4.3-2.3 11.3-0.2 22.9-4.5 32.8-12.2 6.4-4.9 12.4-12.4 12.4-15.5 0-2.1-4.2-6.4-6.3-6.4-0.5 0-3.9 3.1-7.6 6.8-10.7 11-21 15.6-33.3 15-6.8-0.3-6.4-0.8 2.2-2.8 12.9-2.9 27.7-14.6 33.7-26.5 4.2-8.3 4.8-10.5 2.9-10.5-0.9 0-2.7 2.5-4.3 5.7-3.8 7.7-11.9 16.3-19.1 20.1-8.7 4.7-22.2 7.8-22.2 5.2 0-0.5 0.6-1 1.4-1 0.7 0 4.9-1.8 9.3-4 14.1-7 27.6-24 29-36.4 0.5-3.9 0.2-4.6-2.2-6.2-4.5-2.9-7.3-1.1-10.1 6.5-5 13.9-17 25.4-29.7 28.5-4.1 1-3.3-0.6 1.9-3.3 10.7-5.7 20.7-18 24.4-29.9 2.1-6.9 3.1-19.7 1.7-22-1.6-2.3-2.7-0.1-2.7 5.2 0 14.3-9.1 30.3-22 38.6-7.5 4.8-8.2 3.6-1.9-3.1 10.7-11.5 15.8-23 16.6-37.9 0.6-11.2-0.8-16.7-4.8-18.9-2.4-1.3-3-1.3-5.4 0.3-2.6 1.7-2.6 1.7-2 10.9 1.4 18.8-6.3 34.3-21.4 43.4l-4.1 2.4v-5c0-5.7-1.5-7.5-2.4-2.9-1.4 7.2-7.7 11.8-16.2 11.8-1.7 0-4.3 0.9-5.7 2.1-3.8 2.9-4.3 7.4-1.7 13.3 1.7 3.7 2.1 6.3 1.8 10.6-0.7 10.2-7.5 16-18.5 16-6.7 0-11.1-2.5-14.2-8-1.9-3.5-4.7-14.7-3.8-15.6 0.2-0.2 1.6 0 3.1 0.6 3.5 1.3 8.6 1.3 8.6 0 0-0.5-0.9-1-1.9-1-1.1 0-3.3-1.4-5-3.1-4.3-4.2-4.2-9 0.3-18.3q5.9-12.2 16-19.4l4.6-3.3v3c0 1.6 0.3 3.7 0.6 4.5 1 2.7 2.4 1.8 2.4-1.7 0-7 5.2-10.4 17.8-11.4 8.6-0.6 17.6 0.9 20.4 3.4 2.3 2.1 2.9 1.4 3.5-4.1 0.7-5.7-2.2-10.7-7.5-13q-0.9-0.5-1.8-0.9-0.9-0.4-1.9-0.9-0.9-0.4-1.8-0.9-0.9-0.4-1.8-0.9c-1.9-1.1-6.8-2.5-10.9-3.1-8.6-1.4-16.4-0.2-24.2 3.7-3.9 2-6.2 2.4-13.3 2.4-4.7 0-8.5 0.3-8.5 0.7 0 0.4 1.2 1.9 2.6 3.5 2.2 2.3 2.5 3 1.4 4.2-2.2 2.7-7.6 3-12.2 0.7-2.3-1.1-4.4-1.9-4.5-1.7-0.7 0.7 6.8 6.6 8.2 6.6 2.3 0 1.8 1.3-1.6 4.6-3.5 3.3-13.8 18.3-16 23.2-0.8 1.8-1.7 3.2-2 3.2-0.3 0-1.6-2.1-2.8-4.7-2.8-5.8-12-18.9-15.5-22.2q-4.4-4.1-1.2-4.1c1.6 0 7.6-4.7 7.6-6 0-0.4-1.7 0.1-3.7 1.1-4.6 2.3-6.5 2.4-10.9 0.3l-3.4-1.6 3-3.6 3-3.7-9.2-0.5c-6.9-0.4-10.4-1.1-13.4-2.7-6.8-3.6-15-4.8-23.5-3.4-4 0.6-8.9 2-10.8 3.1q-1 0.5-1.9 0.9-0.9 0.5-1.8 0.9-1 0.5-1.9 0.9-0.9 0.5-1.9 0.9-8.1 3.7-7.3 12.7c0.2 2.6 0.7 5 1 5.3 0.3 0.3 2-0.5 3.7-1.8 2.9-2.1 4.2-2.3 14.3-2.3 6.8 0 12.7 0.5 15 1.4 4.3 1.5 7.7 6 7.7 10.4 0 4.1 1.9 3.2 2.6-1.3 0.4-2.2 0.9-4 1.1-4 1.7 0 10.7 7.9 14.2 12.4 4.5 5.8 9.1 16 9.1 20.2 0 4.8-4.4 10.3-8.3 10.4-0.9 0-1.7 0.5-1.7 1 0 1.3 5.1 1.3 8.4 0 2.5-0.9 2.6-0.8 2.6 2.8 0 8.6-4.6 16.6-11 19.2-4.9 2-14.2 0.9-18.3-2.2-7-5.4-8.9-14.8-4.8-23.7 2.7-5.7 2.3-9-1.4-12.7-1.6-1.5-3.6-2.4-5.7-2.4-8.4 0-15.2-4.6-16.5-11.1-0.9-4.6-2.3-3.3-2.3 2.2v5l-4.2-2.3c-6.9-3.8-13.7-11.4-17.7-19.7-3.6-7.5-3.6-7.8-3.6-20.3 0-7.2-0.5-13.1-1-13.6-1.7-1.7-4.9-2.1-7.2-1zm97 0.4c-1.5 4-0.3 4.2 22.9 4l22.3-0.1v-5l-22.3-0.1c-18.2-0.1-22.5 0.1-22.9 1.2zm-54.1 17.1c0.4 2.5 2.8 2.8 2.8 0.4 0-1.2-0.7-2.1-1.6-2.1-0.9 0-1.4 0.7-1.2 1.7zm150.2-0.6c-1 1.7 1.3 3.6 2.7 2.2 1.2-1.2 0.4-3.3-1.1-3.3-0.5 0-1.2 0.5-1.6 1.1zm1015.9-0.1c-17.2 2.6-28.4 14.5-28.4 30.1-0.1 8.9 2.4 14.2 9.4 20.5 4.5 4 8.7 6.3 28.4 15.6 6.1 2.9 11 8.7 11.8 14.2 0.6 3.7 0.3 5.5-1.7 9.3-3.1 6.2-6.4 8.5-13.3 9.1-11.5 1-21.5-6.4-28.3-20.9-3.8-8.1-4.4-8.5-8.5-7l-2.5 1 1.4 8.7c0.8 4.8 2 11.1 2.7 13.8 1.2 4.8 1.6 5.3 6.8 7.9 3.1 1.6 9.3 3.5 13.9 4.4 7.1 1.4 9.4 1.5 16.8 0.4 20.1-2.9 32.2-14.7 32.2-31.6 0-15.8-7.6-23.4-34.4-34.5-9.4-3.9-15.1-9-16.1-14.3-2.2-11.5 5.5-19.6 17.5-18.5 7.9 0.8 14.1 6.6 18.5 17.5 1.3 3.2 2.9 5.8 3.4 5.7 0.6 0 2.2-0.2 3.7-0.2l2.6-0.2-0.7-7.2c-0.4-4-1.2-10.2-1.9-13.8l-1.1-6.5-6.2-1.6c-7.8-2.1-19.3-3-26-1.9zm300.9 0c-1.8 0.4-3.4 0.9-3.6 1.1-0.2 0.2-8 19-17.4 41.8-9.5 22.8-18.3 43.3-19.7 45.7-2.8 4.7-6.8 7.4-12.5 8.4-3.2 0.5-3.5 0.8-3.5 4v3.5h41v-3.5c0-3.4-0.1-3.5-5-4.3-7.2-1.2-8.2-2.5-6.7-8.4 0.7-2.7 2.2-7.4 3.4-10.5l2.1-5.8h17.1 17.1l3.2 8.3c1.8 4.5 3.5 9.7 3.9 11.4 0.6 2.9 0.3 3.4-2.1 4.3-1.4 0.5-3.7 1-5.1 1-2.2 0-2.4 0.4-2.4 4v4l24.2-0.2 24.3-0.3v-3.5c0-3.2-0.3-3.5-3-3.8-4.8-0.4-9.9-3.1-12-6.1-1-1.6-10-22.8-20-47.2-9.9-24.3-18.5-44.3-19-44.5-0.6-0.1-2.5 0.2-4.3 0.6zm-1006 5.8c0.2 3.1 0.7 3.8 2.8 4 6.4 0.8 9.7 2.3 10.8 4.7 0.8 1.8 1.2 10.8 1.2 27.8 0.1 35.3 2.1 44.7 11.5 54.3 8.5 8.5 24.5 12.9 38.7 10.5 17.3-2.8 27.6-11.7 33-28.4 1.8-5.3 2.1-10.1 2.7-33.7 0.5-18.2 1.1-28.2 1.9-29.7 1.5-2.8 4.1-4.2 9.5-5.1 4-0.7 4.2-0.9 4.5-4.5l0.3-3.7h-44.2l0.3 3.8c0.3 3.3 0.6 3.7 3.3 4 7.1 0.8 10.5 2.3 12.2 5.5 1.4 2.8 1.7 6.7 1.7 28.2 0.1 23.4-0.1 25.5-2.2 32.4-1.9 5.8-3.3 8.3-7 12-11.9 11.8-32.8 8.7-40.1-5.9-4.1-8.1-4.6-12.6-4.6-40.1 0-30.7-0.2-30.2 8.8-31.6 5.1-0.8 5.2-0.9 5.5-4.5l0.3-3.8h-51.2zm125.8 0.1v3.9l5.7 0.7c3.2 0.3 6.7 1.4 7.9 2.3 4.7 3.8 4.9 5.2 5 34.3 0.2 28.2-0.6 41.7-2.7 45.6-1.3 2.5-5.7 4.4-10.1 4.4-2.6 0-2.8 0.2-2.8 4v4h44.1l-0.3-3.8c-0.3-3.7-0.3-3.7-5.7-4.4-7.3-0.9-10.4-3.4-11.3-8.9-0.4-2.5-1-17-1.3-32.4-0.6-23.3-0.4-27.8 0.7-26.5 0.7 0.9 15.5 18.6 32.8 39.3l31.5 37.7h4.7 4.6l0.4-44.8c0.2-24.6 0.7-45.4 1.1-46.3 1.2-2.4 4.5-4 9.8-4.6l4.9-0.6v-7.7h-44v4c0 3.8 0.1 4 3.2 4 1.8 0 5 0.4 7.1 1 6.3 1.8 6.8 4.2 7.4 34.5 0.5 25.9 0.5 26-1.5 24-1.7-1.8-25.9-29.5-51.2-58.8l-7.5-8.7h-16.3-16.2zm131.4-2.5c-0.3 0.8-0.4 2.5-0.3 3.8 0.3 1.9 1.2 2.4 5.9 3.1 3 0.4 6.1 1.3 6.8 2.1 2.7 2.7 3.1 9.8 2.9 44.3-0.2 34.4-0.3 35.3-2.3 37.4-1.4 1.3-4.1 2.3-7.5 2.7-5.4 0.7-5.4 0.7-5.4 4.2v3.5l25.8 0.3 25.8 0.2-0.3-3.7c-0.3-3.4-0.6-3.8-3.3-4.1-5.3-0.5-7.5-1.2-9.6-3.2-1.8-1.9-1.9-3.5-1.9-40.1 0-23.7 0.4-38.8 1-39.9 1.1-2 6.6-4 11.2-4 2.6 0 2.8-0.3 2.8-4v-4h-25.6c-21.2 0-25.6 0.2-26 1.4zm65.2-0.7c-0.3 0.3-0.6 2.1-0.6 4 0 2.8 0.3 3.3 2.5 3.3 4.2 0 9.9 2.9 12.2 6.3 2.1 3.2 12.4 27.3 29.3 68.7l8.8 21.5h8.5l9.2-22.5c18.8-46.2 27.2-64.5 32-69.2 2.6-2.6 7.9-4.8 11.7-4.8 1.4 0 1.8-0.9 1.8-4v-4h-41v3.8c0 3.8 0 3.8 5.1 4.8 6.9 1.2 7.8 2.7 5.5 10.1-1.7 5.6-16.5 44.1-20.3 53.1l-1.9 4.4-11.3-27.9c-14.2-34.6-14.7-36.1-13.2-37.6 0.6-0.7 3.3-1.7 5.9-2.2 4.5-1 4.7-1.2 5-4.8l0.3-3.7h-24.4c-13.4 0-24.7 0.3-25.1 0.7zm129.4 3.1v3.9l5.2 0.6c6.5 0.8 8.4 2.8 9.3 10 1.2 9.6 0.1 70-1.3 72.4-1.3 2.2-6 4-11.7 4.5-2.7 0.3-3.1 0.7-3.3 4l-0.3 3.8h43.4c40.6 0 43.6-0.1 44.1-1.8 0.8-2.6 5.6-25 5.6-26.2 0-0.6-1.7-1-3.8-1-3.7 0-4 0.2-6.8 6.1-3.8 7.9-8.9 12.5-14.8 13.4-7.8 1.2-25.4 0.2-27.1-1.6-2.3-2.3-3.5-10.9-3.5-24.8v-12.6l13.1 0.5c14.6 0.5 15.4 0.9 16.5 8.2 0.6 3.6 0.8 3.8 4.5 3.8h3.9v-34h-3.9c-3.7 0-3.9 0.1-4.5 3.8-1 6.7-3.1 7.6-17.2 8l-12.4 0.4v-15.9c0-8.7 0.3-16.8 0.6-18.1 0.6-2.1 1-2.2 13-2.2 17.4 0 21.1 2 25.1 13.2 1.7 4.7 1.9 4.9 5.3 4.6 3.9-0.4 3.6 1.6 2.4-17.1l-0.6-9.7h-80.8zm107 0v3.8l5.2 0.7c9.2 1 8.8-0.9 8.8 43.1 0 44.3 0.4 42.2-9.1 43.4-5.4 0.6-5.4 0.6-5.7 4.4l-0.3 3.7h51.1v-7.7l-5.1-0.5c-8.8-0.9-9.4-2-9.7-20.4l-0.4-15.6 5 0.4c7 0.7 9.2 2.5 14.7 12 6.8 11.7 13.8 21.9 17.1 25 5.3 5 11.9 7.2 23.1 7.6 8.7 0.4 10.3 0.2 10.3-1.1 0-0.8 0.2-2.2 0.5-2.9 0.4-1-1.1-2.3-5-4.2-4.1-2-7-4.5-10.9-9.4-5.1-6.3-20.1-28.6-21.2-31.5-0.3-0.8 1-2 3.5-3.1 5.2-2.4 11.9-8.9 14.2-14 4.8-10.6 0.9-25-8.4-31.2-8.1-5.5-14.8-6.4-48.2-6.4h-29.5zm203 0.1c0 3.8 0.2 4.1 2.7 4.1 5.5 0 10.3 2 11.3 4.6 1.3 3.3 1.3 74.4 0 77.7-0.9 2.5-4.9 4.3-11 4.9-2.1 0.2-2.6 0.9-2.8 4l-0.3 3.8h25.5c27.7 0 27.6 0 26.2-5.4-0.5-2-1.4-2.5-5.7-2.9-3.4-0.3-5.8-1.2-7.3-2.6-2.1-2.2-2.1-2.5-2.1-40.6 0-44.3-0.6-41.8 9.5-43.3 5.4-0.8 5.5-0.8 5.5-4.2v-3.5l-25.8-0.3-25.7-0.3zm69-0.1v3.9l5.1 0.5c3.4 0.3 5.8 1.2 7.2 2.6 2.1 2.2 2.2 2.9 2.5 34.4 0.5 47.2 0.2 48.7-10.2 49.5l-5.6 0.5v8l30.7-0.5c27.3-0.4 31.7-0.7 38.6-2.6 25.4-6.9 39.2-21.2 42.8-44.3 2.8-18.4-5.6-38.2-19.8-46.5-13.4-7.9-23.1-9.3-61.1-9.4h-30.2zm246 0.1c0 3.8 0.2 4.1 2.8 4.1 1.6 0 4.3 0.5 6 1.1 5 1.7 5.3 4.6 5 44.9-0.3 35.1-0.4 36-2.4 38-1.4 1.4-4.1 2.4-7.5 2.8l-5.4 0.7-0.3 3.8-0.4 3.9 31.4-0.5c30.4-0.4 31.5-0.5 40.2-3.1 12.3-3.7 20-8 27.1-15.1 6.6-6.7 10.7-14.1 13-23.7 5.6-23.8-5-46.2-26-55.1-11-4.7-14.6-5.1-49.8-5.5l-33.7-0.4zm-478 4.8c-4.7 0.8-5 2.3-5 23.1v19.5l8.8-0.5c9.1-0.6 13.1-1.9 16.9-6 6.5-7 7.1-20.4 1.1-29-3.3-4.7-14.3-8.3-21.8-7.1zm-1211.4 2.9c-6.2 6.3-3.2 16.3 4.9 16.4 1.6 0 5.6-1.4 8.7-3 4.6-2.5 6.2-2.9 7.8-2 1.1 0.6 2 1.8 2 2.6 0 2-5.4 7.4-7.4 7.4-2.6 0-1.9 1.7 1.3 3 3.6 1.5 6.4 0.2 9.1-4.3 6.4-10.5-4.1-19.1-15-12.2-2.2 1.4-5.1 2.5-6.5 2.5-2.1 0-2.5-0.5-2.5-2.9 0-2.8 2.6-6.1 4.8-6.1 1.8 0 1.4-1.8-0.8-3-2.8-1.5-3.5-1.3-6.4 1.6zm1481.4-0.6c-2 1.9-2 3.3-2 38.2 0 32.6 0.2 36.6 1.7 39.8 2.2 4.3 6 5.4 16.4 4.7 22.2-1.5 35.5-20.2 33.6-47.1-1.2-15.1-6-25.3-15.1-31.3-6.7-4.5-13.4-6.3-23.8-6.3-7.5 0-9.1 0.3-10.8 2zm245 0c-2 1.9-2 3.3-2 38 0 40.9 0.1 41.9 6.5 44 5.4 1.8 18 0.7 24.1-1.9 10.2-4.5 18-15.5 20.5-28.8 1.6-8.5 0.5-23.5-2.3-31.3-3.3-9.4-10.9-16.8-20.1-19.8-9.3-3-23.8-3.2-26.7-0.2zm-116.5 23.7q-0.9 2.2-1.7 4.4-0.8 2.2-1.7 4.4-0.8 2.2-1.6 4.4-0.8 2.1-1.6 4.3l-2.9 7.8h26.7l-6.4-17.3c-3.6-9.4-6.6-17.3-6.8-17.5-0.1-0.1-1.9 4.1-4 9.5zm-1172.9 8c-0.3 0.3 0 1.6 0.6 2.8 0.9 2 1.9 2.5 6 2.7l5 0.3 2.3 5.7 2.3 5.6-3.5 3.3c-2.7 2.7-3.3 3.9-2.8 5.9 0.4 1.4 0.8 2.7 1.1 2.9 0.7 0.7 25.4-24.2 25.4-25.5 0-0.6-0.6-1.6-1.3-2.2-1.2-0.9-34.2-2.4-35.1-1.5zm17.9 7c0.4 1 0.9 2.6 1.2 3.5 0.7 2.4 1.5 2.3 4.6-1.1l2.8-2.8-2.3-0.7c-1.3-0.3-3.4-0.6-4.7-0.6-1.8 0-2.2 0.4-1.6 1.7zm-473.7 11.8c-1.8 1-3.4 3.3-4.7 7-2.9 7.5-2.7 8.3 1.6 9.4 2.1 0.6 9 2.6 15.3 4.5 11.7 3.4 12.9 3.4 13-0.7 0-1.2-1.6-2.1-6-3.4-9-2.4-7.9-5 3.7-8.8 5.7-1.8 6.8-2.5 7.4-5 0.5-1.6 0.7-3 0.5-3.2-0.2-0.2-4.2 1-9 2.5-8.1 2.7-8.6 2.8-9.2 1-0.6-2-5.4-4.8-8.1-4.8-1 0.1-3 0.7-4.5 1.5zm1.4 5.7c-0.5 0.7-1.3 2.2-1.6 3.4-0.6 1.8-0.1 2.3 3.3 3.1 4.6 1.2 5.1 0.9 5.1-2.7 0-4.3-4.4-6.8-6.8-3.8zm497 21.5l0.3 5.7-12.5 2.1c-12.3 2-12.5 2-12.8 4.7-0.4 3.5 0.3 3.5 15.3 0.8 13.5-2.4 12.5-2.5 12.5 0.4 0 4.2 1.2 8.6 2.4 8.6 0.6 0 1.7-0.4 2.5-0.9 1.2-0.8 1.2-2.5-0.3-12.3-2.3-14.8-2.3-14.8-5.2-14.8-2.3 0-2.4 0.2-2.2 5.7zm-306.2 50c0 46 0.4 49.6 6.7 61.6 9.6 18.2 27.7 29 48.8 28.9 10 0 19.3-2.6 28.1-7.7 7.5-4.4 15.7-13.4 19.8-21.6 6.1-12.5 6.5-16.5 6.6-61.7v-40.2h-110zm1.6-39.1c-0.3 0.4-0.6 7.8-0.6 16.5v15.8h26l-0.1 6.3c0 3.8-0.3 5.7-0.8 4.9-1.6-2.5-4.6-0.9-5 2.5-0.2 2.2-0.7 3.1-1.6 2.7-1-0.4-1.1-1.1-0.2-3.3 0.8-2.3 0.7-3.4-0.9-5.7-1-1.6-1.8-3.5-1.6-4.2q0.3-1.3-2.3-1c-1.4 0.2-2.6 0.8-2.6 1.3-0.1 0.6-0.7 1.7-1.5 2.6-0.8 0.9-1.1 2.5-0.7 4l0.6 2.4-2.1-2.5c-1.7-2-2.4-2.2-3.4-1.2-0.9 0.9-1 1.5-0.1 2.4 0.8 0.8 0.8 1.6 0 2.9-1.7 2.7 0.6 5 4.3 4.3 3.4-0.7 3.9 0.6 1 2.4-1.1 0.7-2 2-2 2.9 0 1.2 0.7 1.5 3.3 1.2 2.5-0.3 3.3 0 3.3 1.1-0.1 0.9 0.8 1.5 2.3 1.5 2 0 2.7-0.7 3.5-3.5 0.5-1.9 1.6-4.1 2.3-4.9 0.8-0.7 1.2-2.1 1-3q-0.4-1.6 1.4-1.6c1.7 0 1.9 0.8 1.9 7.8 0 4.2 0.2 7.7 0.4 7.7 1.2 0 7.6-3.4 7.6-4.1 0-0.4-0.8-0.9-1.8-1.2-1-0.2-0.1-0.5 1.8-0.5 3.6-0.2 8-3.4 8-6 0-2.1-4.4-0.9-5 1.3-0.3 1.3-1.4 2.1-2.9 2.1-2.1 0.1-2.3-0.2-1.7-2.8 0.3-1.7 0.6-3.4 0.6-3.9 0-0.5 3.1-0.9 7-0.9 4 0 7-0.4 7-1 0-0.5-3.2-1-7.5-1-4.2 0-7.5-0.3-7.5-0.8 0-1.7 1.3-2.1 3.3-1 1.6 0.9 2.3 0.8 3.2-0.5 1.5-2.1 2.5-2.1 2.5-0.2 0 0.9 0.6 1.5 1.5 1.5 0.8 0 1.5-0.4 1.5-1 0-0.7 0.6-0.7 1.9 0 2.2 1.2 3.1 0.3 5.5-5.3 2.8-6.8 3-6.7-11.4-6.7h-13v-31h-12.9c-7 0-13.1 0.3-13.5 0.7zm57.1 0c-0.4 0.4-0.7 9.3-0.7 19.8 0 16.7 0.3 19.5 1.9 22.5 1.4 2.6 2.1 3.1 2.5 2 0.3-0.8 0.5-11.2 0.3-23-0.2-18.4-0.5-21.5-1.8-21.7-0.8-0.2-1.9 0-2.2 0.4zm5.9 0c-0.3 0.4-0.6 11.6-0.6 24.9 0 22.1 0.1 24.3 1.8 25.8 1 0.9 2 1.6 2.2 1.6 0.3 0 0.3-11.9 0.2-26.5-0.2-20.9-0.6-26.5-1.6-26.5-0.7 0-1.6 0.3-2 0.7zm5.4 27.1c0 27.3 0.3 30.2 3.2 30.2 0.4 0 0.8-13 0.8-29 0-28.3-0.1-29-2-29-2 0-2 0.7-2 27.8zm6.2 2.5c0.2 27.9 0.4 30.2 2 30.6 1.6 0.3 1.8-1.7 1.8-30.3 0-30-0.1-30.6-2.1-30.6-1.9 0-2 0.6-1.7 30.3zm13.8-18.3c0 10.9-0.9 15.3-2.4 11.5-0.3-0.8-1.3-1.5-2.2-1.5-1.2 0-1.5 0.6-1 1.8 0.5 1.4 0.4 1.5-0.6 0.5-2.4-2.4-2.8-1.2-2.8 7.7 0 8.1 0.9 11.3 2.3 7.8 0.3-0.7 0.5 0 0.6 1.5 0.1 3.5 3.7 3.9 5 0.5 0.6-1.5 1 1.6 1 10 0.1 11.4 0.2 12.2 2 12.2 1.8 0 2-0.9 2.3-14.1 0.3-13.8-0.3-17.3-2.2-12.7-0.7 1.7-0.9 0.4-0.8-5.2 0-4.1 0.2-6.4 0.5-5.2 0.2 1.2 0.9 2.2 1.6 2.2 0.8 0 1.1-3.8 0.9-14.5-0.3-13.6-0.5-14.5-2.3-14.5-1.8 0-1.9 0.8-1.9 12zm-5.3-11.3c-1.2 1.2-0.8 6.9 0.8 10.7 2.4 5.8 3.6 4.5 3.3-3.6-0.3-5.6-0.7-7.3-1.9-7.5-0.8-0.2-1.9 0-2.2 0.4zm11.3 13.8c0 8.3 0.4 14.5 0.9 14.5 0.5 0 1.1-1 1.4-2.2 0.2-1.2 0.4 1.1 0.5 5.2 0 5.5-0.2 6.9-0.9 5.3-0.5-1.2-1.1-2.3-1.4-2.3-0.3 0-0.5 6.6-0.5 14.5 0 13.9 0.1 14.5 2 14.5 1.8 0 2-0.6 2-12.2 0.1-8.4 0.4-11.5 1-10 1.3 3.4 4.9 3 5-0.5 0.1-1.5 0.3-2.2 0.6-1.5 1.2 3 1.8-0.2 1.5-8.2-0.2-4.9-0.7-8.3-1.2-8-0.5 0.3-1 1.5-1.1 2.8 0 1.6-0.2 1.4-0.7-0.9-0.4-1.7-1.3-3-2.2-3-0.8 0-1.3 0.6-1.2 1.4 0.2 0.7-0.2 1-0.7 0.7-0.6-0.4-1-5.5-1-12.6 0-11.3-0.2-12-2-12-1.9 0-2 0.7-2 14.5zm5.7-13.8c-1.1 1.1-0.9 14.3 0.2 14.3 1.7 0 4.2-7.2 3.9-10.9-0.3-3.4-2.4-5.1-4.1-3.4zm-62.2 4.3c-0.4 0.6-0.1 1 0.6 1 0.7 0 0.3 0.7-0.9 1.6-1.7 1.2-2.1 2.2-1.7 4.3 0.5 2.4 0.4 2.5-0.5 0.4-0.5-1.3-1.9-2.3-3-2.3-2.1 0-2.8 2.5-1 3.6 0.7 0.4 0.7 1-0.1 2-0.8 0.9-0.8 1.9 0 3.4 0.9 1.6 1.7 1.9 4.1 1.4q5.3-1.1 0.8 2.6c-2.6 2-1.7 4 1.7 4 1.4 0 2.5 0.5 2.5 1 0 0.6 1.3 1 2.9 1 2.6 0 3.1-0.4 3.6-3.4 0.4-1.9 1.3-3.7 2.1-4 0.7-0.3 1.4-1.2 1.4-2.2 0-0.9 0.7-2.1 1.5-2.8 2.2-1.6 0.8-4.7-1.9-4.4-1.6 0.3-2.2 1.2-2.5 3.5-0.2 2.2-0.7 3.1-1.6 2.7-1-0.4-1.1-1.1-0.2-3.3 0.8-2.3 0.7-3.4-0.7-5.4-0.9-1.4-1.6-3.3-1.6-4.1 0-1.8-4.5-2.2-5.5-0.6zm-25.5 6.1c0 0.6-1.4 1-3.2 0.8-1.7-0.2-3.3 0.1-3.5 0.6-0.2 0.7 2.8 1 7.7 1 4.4 0 8-0.3 8-0.7 0-0.8-2.2-1.1-5.3-0.8-1 0.1-1.7-0.3-1.7-0.9 0-0.6-0.5-1.1-1-1.1-0.6 0-1 0.5-1 1.1zm-219.5 2.1c-0.2 0.8-0.6 5-0.9 9.5l-0.4 8.1 2.7 0.6c1.4 0.3 8.8 0.8 16.2 1.2l13.5 0.7 0.7-6.9c1.1-11.6 1-12.4-1.7-12.4-2.6 0-3.6 2.9-3.6 9.7 0 3.3-0.1 3.3-4.3 3.3h-4.3l0.4-6.5c0.4-6.3 0.3-6.5-2.1-6.5-2.1 0-2.6 0.6-3.1 3.8-0.3 2.1-0.6 4.9-0.6 6.3 0 2.3-0.3 2.5-4.1 2.1l-4.1-0.4 0.3-6.6c0.3-6.3 0.2-6.7-1.9-7-1.2-0.2-2.4 0.3-2.7 1zm213.4 4c0 0.8-0.2 2.4-0.6 3.6-0.5 1.9-0.2 2.2 1.8 2.2 1.5 0 2.7-0.8 3.4-2.2 0.5-1.2 1.6-2.3 2.5-2.3 0.8 0 1.6 1.1 1.8 2.3 0.2 1.6 1 2.2 2.8 2.2 2.2 0 2.4-0.3 2.2-3.2l-0.3-3.3-6.8-0.3c-5-0.2-6.7 0.1-6.8 1zm1.1 2.3c0 0.9 0.4 1.5 1 1.5 0.5 0 1-0.6 1-1.5 0-0.8-0.5-1.5-1-1.5-0.6 0-1 0.7-1 1.5zm9.6-0.8c-1.1 1.2-0.7 2.3 0.9 2.3 0.8 0 1.5-0.6 1.5-1.5 0-1.5-1.2-1.9-2.4-0.8zm-8.4 8.1c2.6 0.2 6.9 0.2 9.5 0 2.6-0.2 0.5-0.4-4.7-0.4-5.3 0-7.4 0.2-4.8 0.4zm-19.8 10.3c-1 1.7 1.3 3.6 2.7 2.2 1.1-1.1 0.4-3.3-1.1-3.3-0.5 0-1.2 0.5-1.6 1.1zm126 0c-1 1.7 1.3 3.6 2.7 2.2 1.1-1.1 0.4-3.3-1.1-3.3-0.5 0-1.2 0.5-1.6 1.1zm167.6 12.4c0 9.5 0 9.5 2.5 9.5 2.4 0 2.5-0.2 2.5-6.5v-6.5h9.1l-0.3 6.3c-0.2 6.1-0.2 6.3 2.5 6.6 2.6 0.3 2.7 0.3 2.7-6.3v-6.6h8v7c0 6.7 0.1 7 2.3 7 2.1 0 2.4-0.5 3-5.2 0.4-2.9 0.6-7.1 0.6-9.4 0.1-4-0.1-4.1-3.7-4.7-2.1-0.4-9.5-0.6-16.5-0.6l-12.7-0.1zm-232-5.1c0 0.8-0.7 1.9-1.4 2.6-2.1 1.7-2.6 4.6-1.1 7.4 1.1 2.2 1 2.5-1.2 3.5-3.3 1.5-2.9 2.5 1.9 4.6 2.9 1.3 4.3 1.5 4.5 0.7 0.3-0.6 1.7-1.2 3.3-1.2 6.1 0 7.7-2 3.3-4.3-1.7-0.9-2.2-1.6-1.5-2.1 1.7-1 1.4-7.1-0.3-8.6-0.9-0.6-1.5-1.7-1.5-2.4 0-0.6-1.4-1.2-3-1.4q-3-0.2-3 1.2zm-61.6 1.7c-1 1.7 1.3 3.6 2.7 2.2 1.1-1.1 0.4-3.3-1.1-3.3-0.5 0-1.2 0.5-1.6 1.1zm126 0c-1 1.7 1.3 3.6 2.7 2.2 1.1-1.1 0.4-3.3-1.1-3.3-0.5 0-1.2 0.5-1.6 1.1zm-81.4 4.4c0 0.9 0.4 1.5 1 1.5 0.5 0 1-0.6 1-1.5 0-0.8-0.5-1.5-1-1.5-0.6 0-1 0.7-1 1.5zm50.6 2.8c-0.9 2.4-1.6 5.8-1.6 7.6 0 2.8 0.3 3.2 2.2 3 2.1-0.3 2.3-1 2.6-7.6 0.1-4-0.2-7.3-0.7-7.3-0.5 0-1.6 2-2.5 4.3zm15.6 3c0.2 6.6 0.4 7.3 2.5 7.6 2 0.2 2.3-0.2 2.3-3.3 0-4-2.8-11.6-4.2-11.6-0.5 0-0.8 3.3-0.6 7.3zm-47.2-4.2c0 1.1 0.4 1.8 1 1.4 0.5-0.3 1-1.2 1-2 0-0.8-0.5-1.5-1-1.5-0.6 0-1 1-1 2.1zm-63.6 3c-1 1.7 1.3 3.6 2.7 2.2 1.1-1.1 0.4-3.3-1.1-3.3-0.5 0-1.2 0.5-1.6 1.1zm126 0c-1 1.7 1.3 3.6 2.7 2.2 1.1-1.1 0.4-3.3-1.1-3.3-0.5 0-1.2 0.5-1.6 1.1zm1177.1 4.1c-3.7 0.8-4.2 1.3-6.4 6.6-17.1 42.5-37.8 91.9-40.2 96-3.5 6.1-6.2 8.1-13.3 9.7-5.1 1.2-5.1 1.2-5.1 5.1v3.9h46l0.3-4.1 0.3-4.1-5.1-0.6c-6.9-0.8-9-2.1-9-5.6 0-2.5 3.4-14.5 6.1-21.3l1.1-2.8 20.1 0.1h20.2l4.3 11.4c2.4 6.4 4.2 12.7 4 14.3-0.3 2.5-0.9 2.8-5.8 3.8l-5.5 1.1v7.8l26.7 0.3 26.8 0.3v-8.8l-5-0.6c-6.2-0.7-8.3-1.8-11.4-5.9-2.6-3.5-5.4-10.1-28.6-68.3-8.4-20.9-15.5-38.2-15.9-38.5-0.3-0.4-2.4-0.3-4.6 0.2zm-545.5 1.3c-26.3 5.8-44.2 20.2-51.7 41.6-2.2 6.4-2.6 9.2-2.7 19.4-0.1 18.6 4.5 30.7 15.9 42 20.6 20.6 54.2 25.6 93 14.1l5-1.5-0.4-20.1c-0.4-23.2-0.1-24.3 7.1-25.7 4.2-0.8 4.3-0.9 4.3-4.8v-4h-55v8l7.5 1c8.1 1.2 11.4 2.6 12.9 5.5 0.6 1.1 1.1 8.2 1.1 15.9 0 13.5-0.1 14.1-2.6 17-3.6 4.3-8 5.4-19.3 5-8.2-0.4-10.6-0.9-16.3-3.6-15.8-7.3-25-21.7-27.8-43.3-1-6.9-0.9-10.3 0.3-17.8 4.4-27.1 22.5-42.8 46.9-40.9 4 0.4 9.4 1.4 12 2.3 9.2 3.2 18 13.7 20.2 24.2 0.6 2.9 1.1 3.2 4.2 3.2 2.2 0 3.6-0.5 4-1.6 0.6-1.5-1.1-24.9-2.2-30.1-0.5-2.5-3-3.3-16.5-5.7-10.1-1.8-32.1-1.9-39.9-0.1zm268.7-0.2c-1 0.7-9.2 19.5-18.3 41.7-22 53.8-23.3 56.8-26.7 61.9-3.3 4.8-9.2 8.1-14.5 8.1-3.3 0-3.4 0.1-3 4.3l0.3 4.2h46l0.3-4.2c0.3-4.1 0.1-4.3-2.5-4.3-1.6 0-4.5-0.4-6.6-1-5.5-1.5-5.7-4-1.3-17.5l3.6-11.5h20.2 20.3l4.3 11.4c2.5 6.6 4.2 12.6 4 14.3-0.3 2.6-0.8 2.9-5.8 3.9l-5.5 1.1v7.8h54l0.3-3.7c0.3-4.2 0.2-4.3-7.3-5.3-9.2-1.2-9.5-1.7-33-60.3l-21-52.2h-3.1c-1.7 0-3.8 0.6-4.7 1.3zm547-0.6c-1 0.3-2.5 2.2-3.3 4.2-0.9 2-9.7 23.4-19.6 47.6-19.1 46.7-21.5 52-25.7 55.8-2.9 2.7-8 4.7-11.8 4.7-2.1 0-2.3 0.5-2.3 4.6v4.5l23.2-0.3 23.3-0.3v-7.9l-5.5-0.8c-6.5-0.9-9.4-3.5-8.5-7.6 0.4-1.5 2-7 3.7-12.4l3-9.8h40.6l2.7 7.3c1.5 4 3.3 8.8 4.1 10.6 0.7 1.9 1.4 4.9 1.4 6.8 0 3.7-2.5 5.3-8.1 5.3-1.6 0-3 0.4-3 0.8-0.1 0.4-0.3 1.6-0.5 2.7-0.2 1.1-0.1 2.8 0.2 3.8 0.5 1.6 2.4 1.8 27.2 1.5l26.7-0.3v-3.9c0-4-0.1-4-4.6-4.7-6.7-0.9-10.5-3.3-13.3-8.1-1.9-3.4-15.7-36.9-42.4-103.5-0.4-1.2-4-1.5-7.5-0.6zm-732.7 6.2v3.9l5 0.7c7 0.9 9.7 2.3 10.9 5.8 1.5 4.3 1.4 85.4 0 89.6-1.4 4-3.3 5-10.9 5.8l-6.1 0.6 0.3 4.1 0.3 4.1h57v-7.9l-5.8-0.8c-7-0.8-9.5-2.1-10.8-5.4-0.5-1.4-0.9-10.2-0.9-19.5v-17.1l6.3 0.4c3.7 0.2 7.5 1.1 8.9 2.1 1.5 0.9 6.1 7.5 10.3 14.6 17.7 29.7 24.9 35.1 47 35.1 6.6 0 7.3-0.1 7.8-2.2 1.1-3.9 0.8-4.3-4.4-6.7-6.2-2.8-12.2-8.8-20.9-21.1-7.7-10.7-18.5-27.9-17.9-28.4 0.2-0.1 2.1-1.1 4.2-2.1 6.2-2.9 14.1-10.8 16.6-16.6 1.9-4.3 2.2-6.6 1.9-13.3-0.3-5-1.1-9.4-2.2-11.7-4.2-8.6-13.7-15-25.3-16.9-3.2-0.5-20.6-0.9-38.6-0.9l-32.7-0.1zm261-0.1v3.8l6.2 1.2c3.4 0.6 7.3 2 8.7 3.1 5.5 4 5.6 4.4 5.6 47.2 0 49.1 0 48.9-12.6 50.7l-5.4 0.8v8h50l0.3-4.1 0.3-4.1-6.3-0.7c-3.7-0.4-7.4-1.4-8.8-2.5-4.7-3.4-5.2-7.1-5.8-44.1-0.3-19-0.3-34.3 0-34 0.3 0.2 17.3 20.7 37.8 45.5l37.3 45 4.8 0.3 4.9 0.3v-45.3c0-24.9 0.5-48.7 1-52.8 1.2-9.5 3.2-11.7 11.8-13.3l6.2-1.2v-7.6l-25.3 0.3-25.2 0.3v6.9l6.6 1.2c3.7 0.7 7.6 1.7 8.7 2.3 4 2.2 4.5 6 4.9 39.1l0.3 31.5-3.8-4.2c-2.1-2.3-17.9-20.6-35.2-40.7l-31.5-36.5-17.8-0.1h-17.7zm279 0c0 4 0 4 4.6 4.7 6.6 1 9.1 2.4 10.3 5.8 1.5 4.2 1.4 85.3 0 89.6-1.4 4-3.3 5-10.9 5.8l-6.1 0.6 0.3 4.1 0.3 4.1h31.5c32.8 0 39.3-0.6 52-4.7 22.4-7.2 37.6-22.6 42.4-42.9 2-8.3 2-22.5 0-30.3-5-19.2-18.3-31.8-40.3-37.8-7-2-10.8-2.2-45.9-2.6l-38.2-0.4zm-1380.6-1.7c-1 1.7 1.3 3.6 2.7 2.2 1.1-1.1 0.4-3.3-1.1-3.3-0.5 0-1.2 0.5-1.6 1.1zm126 0c-1 1.7 1.3 3.6 2.7 2.2 1.1-1.1 0.4-3.3-1.1-3.3-0.5 0-1.2 0.5-1.6 1.1zm-322.4 2.5c0 3 0.7 3.4 12.5 6.5l10 2.6-5.5 3.5q-1.3 0.8-2.5 1.6-1.2 0.8-2.4 1.5-1.3 0.8-2.5 1.6-1.2 0.8-2.4 1.5c-3.6 2.3-4.2 3.1-3.7 4.9 0.4 1.2 0.8 2.4 1 2.6 0.2 0.2 7.1-3.9 15.4-9 10-6.1 14.8-9.6 14.1-10.2-0.5-0.6-8.4-2.9-17.5-5.2l-16.5-4.2zm207.4-0.2c-0.3 0.8-0.4 3.1-0.3 5.2l0.4 3.9h52v-10l-25.8-0.3c-21.5-0.2-25.9 0-26.3 1.2zm54.6 2.1c0 3.3 0.1 3.5 3.5 3.5 2.8 0 3.5 0.4 3.5 2q0 2 2 2c1.7 0 2 0.7 2 6 0 5.3 0.2 6 2 6 1.4 0 2 0.7 2 2.5 0 2.3 0.4 2.5 4 2.5 3.6 0 4-0.2 4-2.5 0-2.1 0.4-2.5 3-2.5 2.5 0 3 0.4 3 2.5 0 2.3 0.3 2.5 4.5 2.5 4.1 0 4.5-0.2 4.5-2.5 0-2.1 0.4-2.5 3-2.5 2.5 0 3 0.4 3 2.5 0 2.1 0.4 2.5 2.9 2.5 2.8 0 4.1-1.4 4.1-4.6 0-0.9-1.1-1.4-3-1.4-2.4 0-3-0.4-3-2 0-1.6 0.6-2 3.5-2 3.3 0 3.5-0.2 3.5-3.5 0-3.3-0.2-3.5-3.5-3.5-2.9 0-3.5-0.4-3.5-2 0-1.6 0.6-2 3.5-2 3.3 0 3.5-0.2 3.5-3.6 0-3.5-0.1-3.5-3.8-3.2-3.2 0.3-3.8 0.7-4.1 3.1-0.2 2.2-0.8 2.7-3.1 2.7-2.4 0-3-0.5-3.2-2.7-0.3-2.5-0.7-2.8-4.3-2.8-3.7 0-4.1 0.3-4.4 2.8-0.2 2.2-0.8 2.7-3.1 2.7-2.4 0-3-0.5-3.2-2.7-0.3-2.4-0.8-2.8-4.1-3.1-3.6-0.3-3.7-0.2-3.7 2.7 0 2.9-0.3 3.1-3.5 3.1-3.3 0-3.5-0.2-3.5-3 0-2.8-0.3-3-4-3-3.9 0-4 0.1-4 3.5zm817 3.7l-2.5 1.4-0.3 23.8-0.3 23.9 9.8-0.5c14-0.8 20.2-3.8 24.2-11.8 6.5-12.6 2.1-29.2-9.3-34.8-5.9-2.9-17.8-4-21.6-2zm544.1-0.3c-8.3 1.4-8.4 2.2-8 52.1 0.3 35.4 0.5 37.7 2.4 40.9 2.8 4.9 7.8 6.4 18.5 5.7 18.2-1.1 29.8-8.5 36.5-23.1 9.2-20.1 6.5-49.5-5.9-63.2-4.1-4.5-12.9-9.5-19.6-11.1-6.4-1.5-18.8-2.2-23.9-1.3zm-1426.7 1.2c-1 1.7 1.3 3.6 2.7 2.2 1.1-1.2 0.4-3.3-1.1-3.3-0.5 0-1.2 0.5-1.6 1.1zm126 0c-1 1.7 1.3 3.6 2.7 2.2 1.1-1.2 0.4-3.3-1.1-3.3-0.5 0-1.2 0.5-1.6 1.1zm-25.2 6.4c0 2.2 0.2 3 0.5 1.7 0.2-1.2 0.2-3-0.1-4-0.2-0.9-0.4 0.1-0.4 2.3zm349.8 1.9c0 3 0.3 3.5 3 4 1.6 0.3 4.4 0.9 6.1 1.2 5.6 1.1 5.9 3.2 5.9 42.4 0 40-0.2 41.1-6.7 42.9-2.1 0.6-5.1 1.1-6.7 1.1-2.6 0-2.7 0.2-2.5 3.8l0.4 3.7 23 0.3c33.3 0.4 47.1-1.6 61.9-9 6.8-3.5 16.7-12.4 20.2-18.4 5.9-10.2 8.5-24.7 6.4-36.4-2.7-14.9-11.2-26.1-24.3-32.4-12.2-5.8-18.5-6.6-54.7-6.6h-32zm123 0c0 3.7 1.2 4.6 6.1 4.6 1.8 0 3.9 0.9 5.4 2.4l2.5 2.5v37.8c0 32.3-0.3 38.2-1.6 40-1.6 2.3-7 4.3-11.8 4.3-2.6 0-2.7 0.2-2.5 3.7l0.4 3.8 43.1 0.2 43.2 0.3 2.1-9.8q0.4-1.7 0.8-3.5 0.4-1.8 0.8-3.5 0.4-1.8 0.8-3.6 0.3-1.7 0.7-3.5c0.6-2.4 0.9-4.5 0.8-4.6-0.2-0.1-2-0.5-3.9-0.9-3.6-0.6-3.7-0.6-5.4 3.8-2.3 6.1-6.9 12.2-10.8 14.3-2.6 1.4-5.7 1.7-15.2 1.8-6.6 0-13.3-0.4-14.8-0.8-4.5-1.3-5.2-3.8-5.6-22.1l-0.3-16.9 12.7 0.5c14.5 0.6 15.9 1.3 17.1 8.9 0.6 3.7 0.8 3.9 4.5 3.9h3.9v-34h-4c-3.4 0-4 0.3-4 2 0 2.9-2.6 7.6-4.6 8.4-0.9 0.3-7 0.6-13.5 0.6h-11.9v-34.1l2.5-0.9c3.2-1.2 11.7-1.2 20.8-0.1 8.3 1.1 10.8 3.1 14.8 11.8 2.3 5 3.3 6.3 5.1 6.3 4.2-0.1 4.5-1 3.7-10.5-0.4-5-0.8-10.7-0.9-12.8v-3.7h-81zm-506.8-1.7c-0.8 0.3-1.2 2.9-1.2 7.9 0 4.1 0.4 7.3 0.8 7 0.5-0.3 1.2 0.3 1.5 1.4 0.2 1.1 1 2 1.7 2 0.6 0 1.4-0.9 1.7-2 0.3-1.1 0.9-1.7 1.4-1.4 0.5 0.3 0.9-2.9 0.9-7.1 0-6.8-1.1-9.5-2.4-6.3-0.3 0.8-0.5 0.6-0.6-0.5q-0.1-2.5-3.8-1zm14.8 0.8c0 0.8 0.4 1.5 0.9 1.5 0.6 0 0.7-0.7 0.4-1.5-0.3-0.8-0.7-1.5-0.9-1.5-0.3 0-0.4 0.7-0.4 1.5zm9.6 0c-0.3 0.8-0.1 1.5 0.4 1.5 0.5 0 1-0.7 1-1.5 0-0.8-0.2-1.5-0.4-1.5-0.3 0-0.7 0.7-1 1.5zm-34.7 1.3c-3.1 1.8-3.8 6.6-1.1 8.1 1 0.6 1.1 1 0.4 1.1-2.4 0-1.2 2.5 1.7 3.8 3.2 1.4 5.1 0.9 5.1-1.4 0-0.8 0.5-2.3 1.2-3.4 1.1-1.7 0.9-2.6-0.7-5.7-2.4-4.3-3.2-4.6-6.6-2.5zm-56.6 0.7c-0.8 2 0.1 2.9 2.1 2.1 2-0.7 2-2.2 0-3-0.9-0.3-1.8 0.1-2.1 0.9zm126 0c-0.8 2 0.1 2.9 2.1 2.1 2-0.7 2-2.2 0-3-0.9-0.3-1.8 0.1-2.1 0.9zm-114.3 2.3c0 1.1 0.5 3.3 1.1 5l1.1 3.2h38.8v-10h-20.5c-19.3 0-20.5 0.1-20.5 1.8zm277.6 1.4c-0.3 1.2-0.4 2.4-0.2 2.6 0.2 0.2 5.3 1.6 11.2 3.1l10.9 2.8-13.7 6.8c-9.5 4.8-13.9 7.5-14.2 8.9-0.3 1.1-0.1 2.3 0.4 2.6 1.5 0.9 30.1 8.2 30.5 7.7 0.3-0.2 0.5-1.4 0.7-2.7 0.2-2.1-0.4-2.5-6.2-4.1-3.6-0.9-8.5-2.2-11-2.9l-4.5-1.2 12-6c15.1-7.6 16.5-8.5 16.5-10.6 0-1.5-2.8-2.5-15.3-5.5-8.4-2.1-15.5-3.7-15.9-3.7-0.3 0-0.9 1-1.2 2.2zm203.1 0.5c-5.8 0.9-5.8 1.5-5.5 42.1l0.3 37.1 2.7 2.8c2.7 2.7 3.3 2.8 12 2.7 7.8 0 10.2-0.4 14.9-2.6 14.4-6.6 21.9-20.7 21.8-40.7-0.1-17.7-6.8-31.4-18.3-37.3-7.1-3.6-19.2-5.4-27.9-4.1zm528.9 8.8q-1 2.7-2 5.3-1 2.7-2 5.3-1 2.7-2 5.3-1 2.7-2 5.3l-5.4 14.3h15.9c8.7 0 15.9-0.2 15.9-0.4 0-0.3-3.3-9.2-7.4-19.8-4-10.6-7.5-20-7.8-20.8-0.3-0.8-1.7 1.7-3.2 5.5zm275.9-5.5c-0.3 0.8-3.8 10.3-7.9 21l-7.3 19.5 15.5 0.3c8.5 0.1 15.6 0.1 15.8-0.1 0.1-0.1-3.3-9.7-7.6-21.2-4.4-11.6-8.2-20.3-8.5-19.5zm265.1 19.4c-4.2 11.2-7.6 20.6-7.6 21 0 0.3 6.9 0.6 15.5 0.6 8.5 0 15.5-0.3 15.5-0.7 0-0.7-15-40.6-15.4-41-0.2-0.2-3.7 8.9-8 20.1zm-1560.6-17.4c0 1.1 0.6 2 1.5 2 0.8 0 1.5-0.9 1.5-2 0-1.1-0.7-2-1.5-2-0.9 0-1.5 0.9-1.5 2zm123-0.1c0 1.2 0.6 2.1 1.5 2.1 1 0 1.5-0.7 1.3-1.7-0.5-2.5-2.8-2.8-2.8-0.4zm-110 3.7c0 2.2 7.2 12.8 11.9 17.5 5.5 5.5 15.1 11.9 18 11.9 0.9 0-5.2-6.8-13.4-15-13.8-13.8-16.5-16.2-16.5-14.4zm24.5 16.4c15.9 16 17.2 17 20.7 17 2.4 0 3.8-0.5 3.8-1.3 0-0.7-7.1-8.3-15.8-17l-15.8-15.7h-9.9zm-0.5-16.7c0 0.1 5.5 5.8 12.2 12.5 6.7 6.7 12.3 12.2 12.5 12.2 0.1 0 0.3-1.9 0.3-4.3 0-4-0.5-4.7-8.3-12.5-7.7-7.7-8.5-8.2-12.5-8.2-2.3 0-4.2 0.1-4.2 0.3zm37 1c0 1.7-4.9 6.3-7.8 7.1-2.1 0.7-2.2 1.1-2.2 13.2v12.4h2.8c4.5 0 14.2-2.8 21.1-6.2 8-3.9 17.4-13.2 21.9-21.6l3.3-6.2h-19.6c-15.4 0-19.5 0.3-19.5 1.3zm-71.3 3.3c-1 1 0.2 2.4 1.8 2.4 0.8 0 1.5-0.7 1.5-1.5 0-1.5-2.1-2.1-3.3-0.9zm117.3 0.9c0 1 0.6 1.5 1.7 1.3 2.1-0.4 2-2.2-0.2-2.6-0.9-0.2-1.5 0.3-1.5 1.3zm-37.8 1.2c-1 0.4-1 0.8-0.1 2 1 1.1 1 1.6-0.1 2.3-1.9 1.2-2.2 4-0.4 4 4.5 0 7.1-4.9 4.2-7.8-1.3-1.3-1.6-1.3-3.6-0.5zm-5.7 3.3c0.3 0.5 0.8 1 1 1 0.3 0 0.5-0.5 0.5-1 0-0.6-0.5-1-1.1-1-0.6 0-0.8 0.4-0.4 1zm-70.3 3.2c0.7 1.9 3.8 2.2 3.8 0.4 0-1-0.9-1.6-2.1-1.6-1.2 0-1.9 0.5-1.7 1.2zm109.8 0.3c0 1 0.6 1.5 1.7 1.3 2.1-0.4 2-2.2-0.2-2.6-0.9-0.2-1.5 0.3-1.5 1.3zm-30 4c0 0.8 0.4 1.5 1 1.5 0.5 0 1-0.7 1-1.5 0-0.8-0.5-1.5-1-1.5-0.6 0-1 0.7-1 1.5zm-253.5 6c-19.8 7.1-18.7 6.5-16.2 9.8 1.1 1.7 2.2 1.4 15.6-3.3 7.8-2.7 14.7-5.3 15.1-5.6 0.9-0.5-0.9-5.5-1.9-5.3-0.4 0-6 2-12.6 4.4zm178.9-3.4c-1 1.6 1.3 3.6 2.7 2.2 1.1-1.2 0.4-3.3-1.1-3.3-0.5 0-1.2 0.5-1.6 1.1zm69.2-0.3c-0.3 0.5 0.1 0.9 0.9 0.9 0.8 0 1.2-0.4 0.9-0.9-0.3-0.4-0.7-0.8-0.9-0.8-0.2 0-0.6 0.4-0.9 0.8zm30.4 0.6c0 0.8 0.3 1.7 0.8 2 1.3 0.8 3.5-1.1 2.7-2.3-0.9-1.6-3.5-1.4-3.5 0.3zm-179 16.6c0 14.3 0.1 15 2 15 1.7 0 2-0.7 2-5.3 0-4.2 0.5-5.7 2.4-7.5 5.9-5.6 3.5-17.2-3.6-17.2h-2.8zm12.6-14.3c-0.7 1.3-0.8 23.8-0.1 26.7 0.6 2.2 1.2 2.6 4.6 2.6 2.8 0 3.9-0.4 3.9-1.5 0-0.9-1-1.5-2.5-1.5h-2.5v-13.5c0-11.1-0.3-13.5-1.5-13.5-0.8 0-1.6 0.3-1.9 0.7zm10.4 12.7c0 14.2 0.7 16.6 5 16.6 3.9 0 5-3.6 5-17.2 0-12.1-0.1-12.8-2-12.8-1.8 0-2 0.8-2.2 13.2-0.2 8-0.7 13.3-1.3 13.3-0.6 0-1.1-5.3-1.3-13.3-0.2-10.8-0.5-13.2-1.7-13.2-1.3 0-1.5 2.3-1.5 13.4zm13-11.5c-1.7 3.2-1.2 6.1 2 11.7 4.1 7.1 3.9 12.7-0.3 13.2-3.5 0.4-3.1 2.6 0.5 3 3.6 0.4 6.8-3.2 6.8-7.8 0-2-1.3-5.8-3-8.9-3.6-6.5-3.9-10.1-1-10.1 1.1 0 2-0.7 2-1.5 0-2.3-5.7-2-7 0.4zm179 11.4c0 11.7 0.2 13.6 1.8 15 2.4 2.2 4.5 2.1 6.5-0.1 1.4-1.5 1.7-4.2 1.7-15 0-12.5-0.1-13.2-2-13.2-1.9 0-2 0.7-2 13.5 0 8.3-0.4 13.5-1 13.5-0.6 0-1-5.2-1-13.5 0-12.8-0.1-13.5-2-13.5-1.9 0-2 0.7-2 13.3zm12 1.7v15l6-0.1 6-0.2v-13.3c0-11.3 0.2-13.4 1.5-13.4 0.8 0 1.5-0.7 1.5-1.5 0-1.1-1.2-1.5-5-1.5-3.8 0-5 0.4-5 1.5 0 0.8 0.7 1.5 1.5 1.5 1.2 0 1.5 2 1.5 12v12h-5v-13.5c0-11.3-0.3-13.5-1.5-13.5-1.3 0-1.5 2.3-1.5 15zm16 0.1c0 13.8 0.1 15 1.7 14.7 1.4-0.3 1.8-1.3 1.7-4.6-0.1-2.3 0.1-4.2 0.2-4.2 0.2 0 0.9 2 1.5 4.5 0.6 2.6 1.7 4.5 2.5 4.5 1.9 0 1.8-4.4-0.2-8.2-1.5-2.9-1.5-3.4 0.1-6.2 2.4-4 2.4-11 0-13.6-1-1.1-3.1-2-4.7-2h-2.8zm13.2-9.9c-3.6 19-4 25.3-2 24.6 0.7-0.3 1.4-1.7 1.6-3.2 0.4-3.6 3.6-3.1 4 0.7 0.2 1.9 0.9 2.7 2.3 2.7 1.7 0 1.9-0.5 1.5-2.7-0.4-1.5-1.1-5.9-1.6-9.8-2.2-15.2-2.6-16.8-3.7-17.2-0.7-0.2-1.5 1.6-2.1 4.9zm-252.2 3.8c0 4.6 0.3 6.1 1 5 0.5-0.8 0.9-3.1 0.9-5 0-1.9-0.4-4.2-0.9-5-0.7-1-1 0.5-1 5zm81.7-5.3c-1.4 1.3-0.7 3.5 1 3.1 1-0.2 1.8-0.9 1.8-1.7 0-1.6-1.8-2.5-2.8-1.4zm87.7 0.4c-1 1.7 1.3 3.6 2.7 2.2 1.1-1.2 0.4-3.3-1.1-3.3-0.5 0-1.2 0.5-1.6 1.1zm73.4 5.2c-0.2 3.6 0.1 6.2 0.5 5.8 1.4-1.4 2-8.7 0.9-10.7-0.8-1.4-1.1-0.3-1.4 4.9zm-154.3 0.7c-0.7 1.2 0.2 3 1.5 3 0.6 0 1-0.9 1-2 0-2.1-1.5-2.7-2.5-1zm73.9 0.1c-1 1.7 1.3 3.6 2.7 2.2 1.1-1.2 0.4-3.3-1.1-3.3-0.5 0-1.2 0.5-1.6 1.1zm-66.8 4.8c-0.7 1.1 1.8 3.3 2.7 2.4 0.4-0.3 0.7-1.2 0.7-2 0-1.4-2.6-1.8-3.4-0.4zm59.6 0.7c0.4 2.1 2.2 2.3 2.6 0.2 0.2-1.1-0.3-1.8-1.3-1.8-1 0-1.5 0.7-1.3 1.6zm-51.1 2.8c-1.2 1.4-0.5 2.6 1.5 2.6 1.5 0 1.9-2.6 0.5-3.4-0.5-0.3-1.4 0-2 0.8zm43.5-0.7c-1.2 1.2-0.6 3.3 0.9 3.3 0.8 0 1.5-0.6 1.5-1.4 0-1.7-1.4-2.8-2.4-1.9zm105.4 1.3c0 1.1 0.4 2 1 2 0.5 0 1-0.9 1-2 0-1.1-0.5-2-1-2-0.6 0-1 0.9-1 2zm-141 2.5c0 0.7 0.4 1.6 0.9 1.9 1.1 0.7 3.3-1.8 2.4-2.7-1.2-1.2-3.3-0.7-3.3 0.8zm26.6-0.7c-0.3 0.5-0.1 1.5 0.4 2.3 0.7 1 1.2 1.1 2.1 0.2 0.6-0.6 0.8-1.6 0.4-2.2-0.8-1.3-2.2-1.4-2.9-0.3zm-17.4 1.8c0.4 2.1 2.2 2.3 2.6 0.2 0.2-1.1-0.3-1.8-1.3-1.8-1 0-1.5 0.7-1.3 1.6zm8.8 0.5c0 2.4 2.3 2.1 2.8-0.4 0.2-1-0.3-1.7-1.2-1.7-1 0-1.6 0.9-1.6 2.1zm203.6 0.7c-3.6 3.9-4.7 8.1-3.1 12 2.6 6.1 9 6.9 16.7 2.2 5.8-3.6 8.2-3.5 8.6 0.1 0.2 2-0.6 3.4-2.9 5.3-1.7 1.5-3 2.8-2.8 3 2.3 2 4.8 2.4 6.7 1 6.1-4.2 6.5-12.9 0.9-16.5-3.8-2.4-7.1-2-12.7 1.6-4.5 2.8-8.8 3.3-9.7 1-0.9-2.6 1.5-6.6 4.7-7.8 3.5-1.3 3.7-2.2 1-3.6-3-1.7-4.4-1.3-7.4 1.7zm-208.2 6.3c-1 1.7 1.3 3.6 2.7 2.2 1.1-1.2 0.4-3.3-1.1-3.3-0.5 0-1.2 0.5-1.6 1.1zm-215.9 7.9c-7.2 4.4-13.2 8.6-13.3 9.3-0.2 0.8 0.3 1.9 1.1 2.6 1.2 1 3.3 0.1 10.7-4.4 5.1-3.1 9.3-5.4 9.5-5.3 0.1 0.2-1.7 6.4-4.1 13.8-4.2 12.7-4.8 18-2.3 18 1.3 0 27.9-16.1 27.8-16.9 0-0.3-0.6-1.4-1.3-2.4-1.3-1.7-2-1.4-10.8 3.9q-1.2 0.8-2.5 1.5-1.3 0.8-2.6 1.6-1.3 0.8-2.6 1.5-1.2 0.8-2.5 1.6c-0.5 0.3-0.6 0-0.2-0.6 0.4-0.7 2.6-7.3 5-14.9 3.5-10.9 4.1-14.1 3.2-15.5-0.6-1-1.3-1.8-1.6-1.8-0.3 0.1-6.4 3.6-13.5 8zm214.9 1.4c-1 2.6 0.4 4.8 2.8 4.4 1.7-0.2 2.3-1 2.3-2.8 0-1.8-0.6-2.6-2.3-2.8-1.3-0.2-2.5 0.3-2.8 1.2zm1.3 12.4c-0.6 3 0.7 5.2 2.2 3.7 1-1.1 0.3-6.5-0.9-6.5-0.4 0-1 1.3-1.3 2.8zm5.7 0.5c0.3 1.5 0.1 3.7-0.4 4.8-0.6 1.1-1 4.5-0.8 7.7l0.3 5.7 2.7-5.6c3.5-7 3.5-9.9 0.1-13l-2.6-2.4zm-18.9 3.1c-1.1 1.7-1.3 3-0.6 4.8 1.1 2.9 3.9 5.4 4.9 4.4 0.4-0.4-0.4-1.5-1.6-2.4-3.4-2.6-2.7-7.5 1.1-8 2.1-0.2 2.9 0.3 3.7 2 0.5 1.4 0.9 1.7 1 0.8 0.1-4.2-6-5.4-8.5-1.6zm-113 1c-3.6 1.1-4 1.5-4.3 4.9-0.2 2.1-0.2 3.7 0 3.7 0.2 0 2.5-0.6 5.2-1.5 6.2-1.9 12.8-1.8 19 0.1 5.1 1.5 14.2 1.8 18.6 0.6 2.5-0.7 3.7-3.8 2.7-6.6-0.5-1.1-1.5-1.1-5.8 0.2-4.9 1.4-5.6 1.3-12.9-0.6-8.5-2.4-16.4-2.6-22.5-0.8zm232.5 0.8c-6.4 1.9-10.9 1.7-17.2-0.7-1.5-0.6-1.8-0.1-1.8 3 0 2.9 0.5 3.8 2.6 4.6 3.8 1.4 13.4 1.2 19-0.5 6.3-1.9 12.8-2 19-0.1 2.7 0.9 5.1 1.5 5.2 1.5 0.2 0 0.2-1.6 0-3.6-0.3-3.4-0.6-3.7-4.8-5-6.2-1.8-14.3-1.6-22 0.8zm-109.8 3c-0.7 1.4-1.2 4.2-1 6.4l0.4 3.9 1.3-2.9c0.6-1.6 1.1-4.5 0.9-6.4l-0.3-3.5zm188.8-0.1c-0.6 1.2-1 2.2-0.8 2.4 2.6 2.1 24.3 17.8 25.1 18.1 1.5 0.6 4.2-3.5 3.1-4.5-3-2.7-24.6-18-25.3-18-0.6 0-1.5 0.9-2.1 2zm-303.5 7.4c-0.5 0.2-3.6 0.9-6.7 1.5l-5.8 1.2v4c0 3.5 0.3 4 1.8 3.3 0.9-0.4 4.4-1.3 7.6-2.1 5.3-1.3 6.4-1.3 14.3 0.7 8.9 2.3 18 2.3 20.9-0.1 0.8-0.7 1.4-2.5 1.4-4.2 0-2.6-0.2-2.9-2.2-2.3-5.8 1.8-11.8 1.7-19.8-0.3-8.2-2.1-9.5-2.3-11.5-1.7zm227.5 1.7c-7.2 1.9-14.2 2-19.7 0.3-2.1-0.6-2.3-0.4-2.3 2.8 0 3.1 0.5 3.7 3.2 4.7 4.7 1.6 11 1.3 19.8-1 7.2-1.9 8.3-1.9 13.7-0.6 3.2 0.8 6.7 1.7 7.7 2.2 1.6 0.6 1.7 0.3 1.5-3.1-0.3-3.3-0.8-3.9-3.9-5-6.9-2.3-12.2-2.4-20-0.3zm-283.5 15.7c-5.4 3.5-16.8 15.8-16.1 17.6 1.3 3.5 3.5 2.5 11.3-5.4 6.7-6.8 8.4-8 11.2-8 2.3 0 4.2 0.8 6.2 2.9 4.8 4.8 4.1 7.1-5.3 16.7l-8.2 8.4 2.1 2 2 2.1 7.9-8.1c4.4-4.5 8.5-9.5 9.2-11.2 1.8-4.1 0.8-8.2-3-12.5-5.7-6.4-11.7-8-17.3-4.5zm335.4 3c-4.9 5-5.2 9-0.9 13.2 3.2 3.2 6.7 3.7 13.3 1.9 4.6-1.3 7.7-0.5 7.7 2 0 2.3-4.5 6.1-7.1 6.1-2.4 0-2.4 1.2 0.1 3.4 2.3 2.1 4.9 1.5 9-2.4 6.6-6.1 2.5-15.9-6.3-15.2-10.6 0.9-12.9 0.7-14-1.2-1-1.5-0.7-2.2 1.6-4.2 1.7-1.4 4.1-2.4 5.8-2.4 3.4 0 3.7-1 1.1-3.4-2.9-2.7-6.1-2-10.3 2.2zm-281.5 49.7c-3.4 5.1 3.1 11 7.7 6.9 3.7-3.4 1.8-9.4-3.1-9.4-2 0-3.4 0.7-4.6 2.5zm234.3-0.7c-1.9 2.1-2.2 6.2-0.5 8 2 1.9 6.6 1.4 8.3-1.1 2-2.9 1.9-4.3-0.5-6.7-2.5-2.5-5.2-2.6-7.3-0.2zm-175.2 7.4c-1.9 4.9-8.1 29.4-7.6 29.9 0.4 0.3 1.6 0.9 2.7 1.3 2 0.5 2.4-0.5 6.4-15 3.6-13 4.1-15.8 2.9-16.5-2-1.3-3.8-1.2-4.4 0.3zm120.2-0.6c-1.1 0.3-1.6 1.1-1.3 2.2 0.3 0.9 2.2 8.1 4.3 16 3.7 14.2 3.7 14.3 6.3 13.6 1.4-0.3 2.7-0.8 2.9-0.9 0.1-0.2-0.6-3.4-1.7-7.2-1.1-3.8-3-10.8-4.2-15.6-1.3-4.8-2.8-8.7-3.4-8.6-0.6 0-1.9 0.3-2.9 0.5zm-85.7 8.6c0 1.3-0.2 5.2-0.6 8.5l-0.6 6 4 0.6c2.2 0.3 4.5 1.3 5.2 2.1 1.8 2.2 0.8 5.8-2 7.4-2.3 1.3-3 1.3-6-0.2-3.8-1.9-3.6-2-4.4 1.4-0.6 2.1-0.2 2.8 1.9 3.8 1.5 0.6 4.7 1.2 7.2 1.2 9.1 0 13.7-9.9 7.8-16.9-1.3-1.6-3.6-3.2-5-3.6-1.9-0.5-2.5-1.2-2.5-3.6 0-2.9 0.2-2.9 4.9-2.9 4.1 0 5-0.4 5.4-2 0.7-2.7 0.5-2.8-8-3.6-7.3-0.7-7.3-0.7-7.3 1.8zm42.3-1.3c-1.7 0.7-2.3 1.8-2.3 4.1 0 2.7 0.3 2.9 2 2 1-0.6 3.3-1 5-1 2.4 0 3.1 0.5 3.7 2.6 0.7 2.7-1.5 5.4-4.4 5.4-0.7 0-1.3 0.9-1.3 2 0 1.4 1.1 2.5 3.5 3.5 2.9 1.2 3.5 2 3.5 4.4 0 2.4-0.5 3.1-2.6 3.7-1.5 0.4-4 0.2-5.6-0.4-2.8-1.1-2.9-1.1-2.6 2 0.4 4 4.3 5.5 10 3.8 6.1-1.8 8.8-7.8 6.3-13.8-0.8-1.8-1.8-3.2-2.4-3.2-0.6 0-0.4-1.1 0.5-2.5 2-3.1 1.3-8.5-1.5-11-2.3-2.1-8.7-2.9-11.8-1.6z"/>
</svg>