<?xml version="1.0" standalone="no"?>
<!DOCTYPE svg PUBLIC "-//W3C//DTD SVG 1.1//EN" "http://www.w3.org/Graphics/SVG/1.1/DTD/svg11.dtd">
<svg xmlns="http://www.w3.org/2000/svg" width="562" height="458" viewBox="0 0 562 458"><path fill-rule="evenodd" d="M193.821 40.195c-5.127 5.607-13.708 14.745-19.071 20.307S165 71.175 165 71.861s4.992 13.102 11.092 27.592l11.093 26.346 4.657 1.687c2.562.928 7.583 2.819 11.158 4.202 3.575 1.382 7.175 2.648 8 2.811.825.164 5.775 1.963 11 3.999 18.143 7.068 22.508 8.706 24 9.004.825.165 3.457 1.086 5.849 2.047 3.453 1.387 4.512 1.484 5.139.471.433-.702 1.23-1.003 1.77-.669.817.504 7.124-12.583 7.64-15.851.087-.55.431-1.45.765-2s4.752-11.213 9.818-23.696l9.21-22.697-3.498-7.303a13900 13900 0 0 0-9.274-19.304c-3.177-6.6-5.845-12.225-5.929-12.5s-1.579-3.579-3.322-7.343c-1.742-3.764-3.168-7.251-3.168-7.75 0-.522-12.292-.907-28.929-.907h-28.929zm117.537-5.97c-1.467 2.323-3.739 6.486-5.049 9.25s-3.024 6.15-3.809 7.525c-7.503 13.139-16.472 31.237-15.922 32.126.377.611 1.042 2.519 1.478 4.242s1.923 6.282 3.306 10.132c8.14 22.662 9.726 27.186 10.136 28.922.249 1.057 1.324 4.207 2.389 7s2.988 7.937 4.274 11.432 2.789 6.346 3.339 6.335c.55-.01 1.465.367 2.034.839 1.259 1.045 3.975.38 21.966-5.381 7.7-2.466 21.024-6.691 29.608-9.39l15.608-4.907-2.956 6.575c-5.72 12.721-9.848 21.601-11.191 24.075-.747 1.375-4.15 8.745-7.564 16.379-4.546 10.166-5.877 14.082-4.977 14.638.675.418.93 1.242.565 1.833-.524.847 5.9 5.169 8.407 5.657.275.053 12.458 6.043 27.073 13.31l26.574 13.214 10.899-4.094c5.994-2.252 11.361-4.384 11.926-4.737.566-.354 1.478-.724 2.028-.823s2.35-.742 4-1.431 3.47-1.356 4.044-1.481c.575-.125 3.255-1.234 5.956-2.465s5.381-2.329 5.956-2.442c.574-.112 2.786-.959 4.916-1.881s4.466-1.677 5.191-1.677c2.037 0 2.185-.688 2.909-13.5.373-6.6.836-13.575 1.028-15.5.552-5.512 1.571-18.001 1.935-23.696l.332-5.195-8.04-8.305c-4.422-4.567-12.528-13.254-18.013-19.304a4403 4403 0 0 0-11.169-12.289c-.967-1.043-4.719-.121-19.62 4.822-10.134 3.362-19.1 6.274-19.925 6.472s-4.816 1.537-8.869 2.975c-4.052 1.439-7.58 2.405-7.838 2.146s.92-3.43 2.619-7.048a2918 2918 0 0 0 6.206-13.328 1887 1887 0 0 1 8-16.981c2.685-5.627 4.869-10.577 4.853-11s-3.646-5.044-8.066-10.269a1908 1908 0 0 1-15.416-18.5c-4.058-4.95-8.64-10.467-10.183-12.261l-2.806-3.26-15.5-.53c-8.525-.292-20.675-.955-27-1.474s-11.832-.95-12.237-.959c-.406-.009-1.938 1.885-3.405 4.209m-202.139 90.571L88.937 144.5l.689 28.128.69 28.128 25.411 10.974 25.411 10.975-6.319 2.308c-3.476 1.269-7.219 2.777-8.319 3.349s-2.47 1.123-3.044 1.221c-.575.099-3.05 1.091-5.5 2.204-3.99 1.812-22.545 8.879-25.706 9.79-.813.234-1.29 2.559-1.364 6.642-.063 3.454-.238 7.406-.389 8.781-.434 3.957-1.43 18.474-2.127 31l-.639 11.5 12.961 13.5c7.129 7.425 15.91 16.618 19.513 20.428l6.551 6.929 7.872-2.902c4.33-1.596 8.097-2.932 8.372-2.969.275-.038 2.975-.926 6-1.974s5.95-2.005 6.5-2.125 5.725-1.856 11.5-3.857c11.04-3.824 15-4.898 15-4.069 0 .471-5.788 13.238-9.992 22.039-1.051 2.2-3.958 8.449-6.461 13.887l-4.55 9.888 5.47 6.612c3.009 3.637 9.131 10.888 13.605 16.113 4.473 5.225 10.141 12.032 12.595 15.127l4.462 5.626 7.686.579c4.227.318 11.96.619 17.185.668s14.371.413 20.324.808 11.197.488 11.654.205c.801-.495 7.137-12.465 20.762-39.226l6.473-12.713-1.554-4.287c-.855-2.358-2.958-8.112-4.674-12.787a2532 2532 0 0 1-5.447-15c-1.28-3.575-3.979-11-5.998-16.5s-4.341-12.161-5.16-14.802-2.252-5.084-3.184-5.427c-.933-.344-1.934-.974-2.226-1.401-.452-.662-32.334 9.362-51.47 16.182-3.3 1.177-7.782 2.569-9.961 3.096-2.178.526-4.61 1.496-5.404 2.154-1.107.918-1.053.441.231-2.042.921-1.781 1.703-3.581 1.737-4 .035-.418 1.109-2.785 2.387-5.26 6.006-11.628 7.591-15 7.049-15-.322 0 .067-1.012.863-2.25 3.741-5.813 13.577-29.981 13.043-32.047-.575-2.226-3.573-3.807-46.168-24.345-7.823-3.772-14.232-7.083-14.242-7.358s13.366-6.358 29.724-13.518c16.357-7.16 29.748-13.46 29.756-14 .009-.54.34-1.491.737-2.114s-5.076-15.473-12.162-33L186.208 126.5l-28.354-10.72c-15.595-5.896-28.354-10.713-28.354-10.704s-9.127 8.883-20.281 19.72m276.24 12.271c-.363.586-.445 1.281-.183 1.543s.743-.218 1.069-1.067c.676-1.762.1-2.072-.886-.476M256 154.797c0 .533-.787 1.177-1.75 1.43-1.247.329-3.024 4.365-6.186 14.048l-4.436 13.586-13.024 6.022c-7.782 3.599-13.294 6.749-13.693 7.828-.401 1.086 1.215 7.061 4.049 14.974l4.718 13.167-5.36 9.753c-3.359 6.11-5.009 10.104-4.418 10.695.519.519.745 1.462.502 2.095-.247.644 5.195 4.407 12.351 8.539l12.792 7.387 4.477 10.376c6.319 14.642 6.16 14.595 22.318 6.573l12.839-6.374 13.659 6.459c9.437 4.462 13.88 6.101 14.374 5.302.393-.636 1.287-1.157 1.987-1.157.859 0 1.782-3.638 2.847-11.228.867-6.175 1.774-11.374 2.015-11.552s2.914-1.051 5.939-1.939c18.601-5.465 23.142-6.972 22.612-7.503-.327-.326-.106-1.182.491-1.902.802-.967-.024-5.027-3.172-15.592-2.341-7.856-4.258-14.738-4.26-15.292s2.969-5.504 6.604-11c9.255-13.995 9.361-13.75-8.686-19.978l-14.26-4.922-3.297-12.268c-4.559-16.965-3.878-16.654-22.319-10.196l-14.456 5.063-12.628-6.682c-6.946-3.675-12.629-6.245-12.629-5.712m157.5 75.289a1317 1317 0 0 1-13.5 4.85c-3.025 1.059-10 3.58-15.5 5.601s-13.82 5.02-18.489 6.662c-9.681 3.406-12.428 4.717-11.605 5.54.317.317.153 1.088-.365 1.712-.601.724-.402 2.747.552 5.592 6.481 19.336 19.358 59.331 19.157 59.498-.307.255-44.547-19.59-50.637-22.713-10.407-5.34-10.113-5.626-24.684 24.027-6.931 14.105-13.768 27.98-15.193 30.833l-2.591 5.188 10.278 27.312c5.653 15.022 10.444 27.875 10.646 28.562.203.688 1.62 1.284 3.15 1.327s3.564.226 4.521.41 7.032.65 13.5 1.037 12.49.841 13.382 1.008 6.527.611 12.522.987l10.9.682 9.978-9.662c5.488-5.315 14.591-13.793 20.228-18.842S400 379.756 400 378.824s-.49-2.961-1.089-4.509-1.239-3.49-1.424-4.315-1.078-3.525-1.987-6-1.81-5.175-2.003-6-1.981-6.225-3.974-12-3.786-11.175-3.984-12c-.199-.825-.851-2.767-1.45-4.315-1.546-3.997-1.391-4.871.661-3.722.962.539 6.925 3.287 13.25 6.106s14.264 6.433 17.643 8.029 6.58 2.902 7.115 2.902 2.153.929 3.596 2.064c3.209 2.524 3.032 2.637 21.992-14.119 2.835-2.505 8.13-6.882 11.767-9.727 3.637-2.844 8.176-6.903 10.088-9.018l3.475-3.847.648-18.926c.357-10.41.931-22.752 1.275-27.427l.626-8.5-5.862-3.141c-3.225-1.727-13.963-7.289-23.863-12.36s-18.428-9.619-18.95-10.109c-1.6-1.499-5.689-.86-14.05 2.196m-82.767 78.038c.679.684 1.486.991 1.793.683.308-.308-.247-.867-1.233-1.243-1.425-.542-1.54-.428-.56.56"/></svg>