<svg version="1.2" xmlns="http://www.w3.org/2000/svg" viewBox="0 0 1132 1080" width="1132" height="1080">
	<title>Proyecto nuevo</title>
	<style>
		.s0 { fill: #f4dd3f } 
	</style>
	<path fill-rule="evenodd" class="s0" d="m563 31c2.7-0.1 18 5.3 34 12l29 12.2v81.8c0 45.1 1.5 80.1 3.3 78.1 1.8-2.1 16.2-35.6 32-74.5l28.8-70.7 35-0.1 35.1-0.1 22.2 22.4c12.2 12.3 22.2 24.1 22.2 26.2 0 2.1-13.1 35.2-29.1 73.6-16.1 38.5-29.1 71.6-29.1 73.8 0 2.1 26.1-22.2 58-54.1l58-57.9 28 11.2c15.4 6.2 29.9 13.3 32.3 15.7 2.5 2.4 9.5 17 15.7 32.4l11.3 27.9-58 58.1c-31.8 31.9-56.5 58-54.7 58 1.7 0 35-13.1 74-29.1 38.9-16 72.5-29.2 74.5-29.2 2.1 0 13.8 10.1 26 22.5l22.2 22.4-0.1 34.9-0.1 34.8-70.8 28.7c-38.9 15.8-72.4 30.3-74.4 32.1-2.1 1.8 33 3.3 78.1 3.3h81.7l12.2 29c6.7 16 12.2 30.9 12.2 33.1 0 2.2-5.5 17.1-12.2 33.1l-12.2 29h-81.7c-45.1 0-80.2 1.5-78.1 3.3 2 1.8 35.5 16.2 74.4 32l70.8 28.8 0.1 35 0.1 35.1-22.5 22.2c-12.3 12.2-24.1 22.2-26.2 22.2-2 0-35.2-13.1-73.6-29.1-38.4-16-71.6-29.1-73.7-29.1-2.1 0 22.2 26.1 54 58l58 58-11.3 28c-6.2 15.4-13.2 30-15.7 32.4-2.4 2.4-16.9 9.4-32.3 15.6l-28 11.3-58-57.9c-31.9-31.9-58-56.5-58-54.8 0 1.8 13.1 35.1 29.1 74 16 39 29.1 72.5 29.1 74.6 0 2-10.1 13.7-22.4 25.9l-22.5 22.2-34.8-0.1-34.8-0.1-28.8-70.7c-15.8-39-30.2-72.5-32-74.5-1.8-2-3.3 33-3.3 78.1v81.8l-29 12.2c-16 6.7-30.9 12.1-33.1 12.1-2.3 0-17.2-5.4-33.1-12.1l-29.1-12.2v-81.3c0-44.6-1.3-80.4-2.9-79.3-1.6 1-16 34.3-32 73.9l-29.1 72.1h-34.9l-34.8 0.1-22.4-22.2c-12.4-12.2-22.5-23.9-22.5-25.9 0-2.1 13.1-35.6 29.1-74.6 16.1-38.9 29.2-72.2 29.2-74 0-1.7-26.1 22.9-58.1 54.8l-58 57.9-28-11.3c-15.3-6.2-29.9-13.2-32.3-15.6-2.5-2.5-9.5-17-15.7-32.4l-11.3-28 58-58c31.8-31.9 56.2-58 54-58-2.1 0-35.3 13.1-73.7 29.1-38.4 16-71.5 29.1-73.6 29.1-2.1 0-13.9-10-26.2-22.2l-22.5-22.2 0.1-35.1 0.1-35 70.8-28.8c38.9-15.8 72.4-30.2 74.4-32 2.1-1.8-33-3.3-78-3.3h-81.7l-10.3-24.3c-13.7-32.5-13.8-43.3-0.8-73.9l11.1-26h81.7c45 0 80.1-1.5 78-3.3-2-1.8-35.5-16.3-74.4-32.1l-70.8-28.7-0.1-34.8-0.1-34.9 22.2-22.4c12.3-12.4 23.9-22.5 26-22.5 2 0 35.6 13.2 74.5 29.2 39 16 72.3 29.1 74 29.1 1.8 0-22.9-26.1-54.7-58l-58-58.1 11.3-27.9c6.2-15.4 13.2-30 15.7-32.4 2.4-2.4 17-9.5 32.3-15.7l28-11.2 58 57.9c32 31.9 58.1 56.4 58.1 54.6 0-1.8-13.1-35.2-29.2-74.1-16-39-29.1-72.3-29.1-74.2 0-1.8 10-13.5 22.2-25.8l22.2-22.4h35.1l35.1 0.1 22.4 55.3c12.3 30.4 26.6 64 31.7 74.6l9.3 19.5 0.3-82 0.3-82 28.2-12c15.5-6.6 30.4-12.1 33.1-12.2zm-61.3 280.3v78.6l-56.5-56.3c-32.3-32.2-54.9-52.1-52.7-46.5 2 5.3 15.2 37.5 29.3 71.5 14.1 34 25 62.4 24.3 63.1-0.7 0.7-29.1-10.2-63.1-24.3-34-14-66.2-27.2-71.5-29.3-5.6-2.1 14.2 20.3 46.4 52.7l56.2 56.4-79 1.1-79 1 70.4 29c38.7 16 70.4 30 70.4 31.2 0 1.1-31.7 15.2-70.4 31.1l-70.4 29.1 79 1 79 1.1-56.2 56.5c-49.4 49.8-54.3 55.8-40.6 50.1 8.5-3.5 41.5-17 73.2-30 57.6-23.7 57.7-23.8 65.1-40.9 4-9.5 8.4-21.4 9.7-26.5 2.3-9.2 1.9-9.4-24.2-9.4h-26.4l19-19.3c10.5-10.6 18.3-20 17.3-20.7-0.9-0.8-11.7-5.4-24-10.3-12.3-4.8-22.3-9.9-22.3-11.3 0-1.4 10.5-6.6 23.4-11.6l23.5-9.1-18.6-20-18.6-20 26.2-1.1c14.4-0.7 26.2-3 26.2-5.1 0-2.2-3.7-12.7-8.3-23.3-4.6-10.6-7.4-20.2-6.2-21.3 1.1-1.2 12.2 2.2 24.7 7.5l22.8 9.6 1.9-27 2-27.1 17.3 17.7c9.5 9.7 18.5 17.7 19.9 17.7 1.4 0 6.5-10.5 11.3-23.3 4.8-12.8 10-23.3 11.7-23.3 1.6 0 6.8 10.5 11.6 23.3 4.8 12.8 9.9 23.3 11.3 23.3 1.5 0 10.4-8 19.9-17.7l17.3-17.7 2 27.1 1.9 27 22.8-9.6c12.5-5.3 23.5-8.8 24.4-7.8 1 0.9-2.5 12.3-7.8 25.3l-9.6 23.5 53.9 2.3-17.5 17.5c-9.5 9.6-17.4 18.6-17.5 20-0.1 1.5 10.3 6.7 23.2 11.7 12.8 4.9 23.3 10.1 23.3 11.5 0 1.4-10.1 6.5-22.4 11.3-12.2 4.9-23.1 9.5-24 10.3-0.9 0.7 6.9 10.1 17.3 20.7l19.1 19.3h-26.5c-26.1 0-26.5 0.2-24.2 9.4 1.3 5.1 5.7 17 9.7 26.5 7.4 17.1 7.5 17.2 65.1 40.9 31.7 13 64.7 26.5 73.2 30 13.7 5.7 8.9-0.3-40.6-50.1l-56.2-56.5 79-1.1 79-1-70.4-29.1c-38.7-15.9-70.4-30-70.4-31.1 0-1.2 31.7-15.2 70.4-31.2l70.4-29-79-1-79-1.1 56.2-56.4c32.2-32.4 52-54.8 46.4-52.7-5.3 2.1-37.5 15.3-71.5 29.3-33.9 14.1-62.3 25-63.1 24.3-0.7-0.7 10.2-29.1 24.3-63.1 14.1-34 27.3-66.2 29.3-71.5 2.2-5.6-20.3 14.3-52.6 46.5l-56.4 56.1-1.1-78.9-1.1-79-29 70.3c-16 38.8-30 70.4-31.1 70.4-1.2 0-15.1-31.4-31-69.9-15.9-38.4-29.4-69.9-30-69.9-0.6 0-1.2 35.4-1.2 78.6zm-31 334.7l-21.4 9.2-27.6 66.1c-15.2 36.4-28.8 69.4-30.3 73.2-1.4 3.9 22.8-18.2 53.8-49.1l56.4-56.2 1 79 1.1 79 29-70.4c16-38.7 30-70.4 31.2-70.4 1.1 0 15.1 31.7 31.1 70.4l29 70.4 1.1-73.3c0.7-40.3 0.1-76.8-1.2-81-1.3-4.3-10.8-15.3-21-24.4l-18.6-16.6-8.8 23.4c-4.8 12.9-10 23.4-11.5 23.4-1.6 0-7-10.5-12.1-23.3-5.1-12.8-10.2-23.3-11.3-23.2-1.1 0.1-9.8 8-19.5 17.6l-17.4 17.4-1.2-25.3c-0.7-16.7-2.7-25.3-5.8-25.2-2.6 0.1-14.3 4.3-26 9.3zm155.3 16.8v26.3l56.6 56.2c49.8 49.6 55.8 54.4 50.2 40.7l-29.7-72.4-23.4-56.9-22.5-10.1c-12.4-5.5-24.4-10-26.8-10-2.9 0-4.4 9.4-4.4 26.2z"/>
</svg>