<svg version="1.2" xmlns="http://www.w3.org/2000/svg" viewBox="0 0 1546 1566" width="1546" height="1566">
	<title>Proyecto nuevo</title>
	<style>
		.s0 { fill: #7ed957 } 
	</style>
	<path fill-rule="evenodd" class="s0" d="m186.6 665.6c-25 31-57.7 90.5-70 127.2-20.4 61.1-27.7 129.5-15.5 144.8 4.6 5.8 8.6 3.2 43-27.8 67.2-60.6 125.9-78.5 221-67.2 85.7 10.2 185.7 53.6 253.3 110 51.9 43.3 54 40.1 38.3-60.3-18.8-120.9-23.6-159.8-20.5-165.2 1.6-2.8 33.5-25.8 70.7-51.1 37.3-25.4 88.8-62.2 114.5-81.9 45.2-34.6 46.5-36 41.5-44.5-11.7-19.8-109.5-49.8-191.8-58.9-118.3-13.1-241.2 8.2-339.8 58.8-40.2 20.6-118.3 83.2-144.7 116.1zm964.1-595.8c0 4.2 4.6 19 10.2 32.8 19.6 49.2 21.7 105.1 5.7 158.3-10.5 35.2-44.5 94.7-73.5 128.8-42.3 49.8-125.7 111.1-184.6 135.7-30.6 12.8-36.9 18.6-29.8 27.3 3.2 4 57.2 23.4 120.1 43.2 89.1 28 114.6 37.8 115.5 44.7 11.1 82.3 44.2 267.8 48.8 273.5 8.4 10.5 22.2 2.4 61.5-36.2 145.1-142.6 211.7-361.8 165.5-545.2-16.1-63.8-34.1-99-80.4-156.5-44.8-55.7-80.3-86.2-123.2-106.1-27.5-12.7-36.1-12.7-35.8-0.3zm-465.9 984.6c23.1 98.3 86.4 215.6 150.2 278 156.1 153 327.3 200.2 500.6 138.2 59.1-21.2 101.5-50.3 91.5-62.8-2.2-2.7-19.3-7.3-38-10-66.5-9.9-116.1-42.2-161.3-105-36.2-50.2-54.2-92.3-67.8-158.5-12-58.5-14.6-100.6-10.1-160.5 1.7-23.2 1.7-43.9 0-46-5.7-7.2-19 2.1-62.1 43-23.5 22.3-63.5 58.7-88.9 80.9l-46.1 40.3-49.4-19.6c-80-31.8-201.6-77.9-209.7-79.5-19.2-4-21.1 9-8.9 61.5z"/>
</svg>