<svg version="1.2" xmlns="http://www.w3.org/2000/svg" viewBox="0 0 457 458" width="457" height="458">
	<title>AAF8xuvOsFs_1743767974181</title>
	<style>
		.s0 { fill: #d73df7 } 
	</style>
	<path fill-rule="evenodd" class="s0" d="m150.1 30h29c16.6 0 28.9 0.4 28.9 0.9 0 0.5 1.4 4 3.2 7.8 1.7 3.7 3.2 7 3.3 7.3 0.1 0.3 2.7 5.9 5.9 12.5q1.2 2.4 2.3 4.8 1.2 2.4 2.4 4.9 1.1 2.4 2.3 4.8 1.1 2.4 2.3 4.8l3.5 7.3-9.2 22.7c-5.1 12.5-9.5 23.1-9.8 23.7-0.4 0.6-0.7 1.4-0.8 2-0.5 3.3-6.8 16.4-7.6 15.9-0.6-0.4-1.4-0.1-1.8 0.6-0.6 1-1.7 0.9-5.2-0.5-2.3-0.9-5-1.8-5.8-2-1.5-0.3-5.9-1.9-24-9-5.2-2-10.2-3.8-11-4-0.8-0.2-4.4-1.4-8-2.8-3.6-1.4-8.6-3.3-11.2-4.2l-4.6-1.7-11.1-26.3c-6.1-14.5-11.1-27-11.1-27.6 0-0.7 4.4-5.8 9.8-11.4 5.3-5.6 13.9-14.7 19-20.3zm111.6 0c0.4 0 6 0.5 12.3 1 6.3 0.5 18.5 1.2 27 1.4l15.5 0.6 2.8 3.2c1.5 1.8 6.1 7.3 10.2 12.3q1.9 2.3 3.8 4.6 1.9 2.4 3.8 4.7 2 2.3 3.9 4.6 1.9 2.3 3.9 4.6c4.4 5.2 8 9.8 8.1 10.3 0 0.4-2.2 5.3-4.9 11q-1 2.1-2 4.2-1 2.1-2 4.2-1 2.2-2 4.3-1 2.1-2 4.2-0.8 1.7-1.5 3.4-0.8 1.6-1.6 3.3-0.8 1.7-1.6 3.3-0.7 1.7-1.5 3.4c-1.7 3.6-2.9 6.8-2.6 7 0.2 0.3 3.8-0.7 7.8-2.1 4.1-1.5 8.1-2.8 8.9-3 0.8-0.2 9.8-3.1 19.9-6.5 14.9-4.9 18.7-5.8 19.6-4.8q1.4 1.5 2.8 3.1 1.4 1.5 2.8 3 1.4 1.6 2.8 3.1 1.4 1.6 2.8 3.1c5.5 6 13.6 14.7 18 19.3l8 8.3-0.3 5.2c-0.3 5.7-1.4 18.2-1.9 23.7-0.2 1.9-0.7 8.9-1 15.5-0.8 12.8-0.9 13.5-3 13.5-0.7 0-3 0.7-5.1 1.7-2.2 0.9-4.4 1.7-5 1.9-0.5 0.1-3.2 1.2-5.9 2.4-2.7 1.2-5.4 2.3-6 2.5-0.6 0.1-2.4 0.8-4 1.4-1.7 0.7-3.5 1.4-4 1.5-0.6 0.1-1.5 0.4-2 0.8-0.6 0.3-6 2.5-12 4.7l-10.9 4.1-26.5-13.2c-14.7-7.3-26.8-13.2-27.1-13.3-2.5-0.5-9-4.8-8.4-5.7 0.3-0.5 0.1-1.4-0.6-1.8-0.9-0.5 0.4-4.5 5-14.6 3.4-7.7 6.8-15 7.5-16.4 1.4-2.5 5.5-11.4 11.2-24.1l3-6.6-15.6 5c-8.6 2.7-21.9 6.9-29.6 9.3-18 5.8-20.7 6.5-22 5.4-0.6-0.4-1.5-0.8-2-0.8-0.6 0-2.1-2.9-3.4-6.4-1.2-3.4-3.2-8.6-4.2-11.4-1.1-2.8-2.2-5.9-2.4-7-0.4-1.7-2-6.2-10.2-28.9-1.3-3.9-2.8-8.4-3.3-10.1-0.4-1.8-1.1-3.7-1.4-4.3-0.6-0.9 8.4-19 15.9-32.1 0.8-1.4 2.5-4.8 3.8-7.5 1.3-2.8 3.6-7 5-9.3 1.5-2.3 3-4.2 3.4-4.2zm-185.2 75.1c0 0 12.7 4.8 28.3 10.7l28.4 10.7 12.9 31.9c7.1 17.5 12.5 32.3 12.1 33-0.4 0.6-0.7 1.5-0.7 2.1 0 0.5-13.4 6.8-29.8 14-16.3 7.1-29.7 13.2-29.7 13.5 0 0.3 6.4 3.6 14.3 7.4 42.6 20.5 45.5 22.1 46.1 24.3 0.6 2.1-9.3 26.2-13 32-0.8 1.3-1.2 2.3-0.9 2.3 0.6 0-1 3.4-7 15-1.3 2.5-2.4 4.8-2.4 5.3-0.1 0.4-0.8 2.2-1.8 4-1.2 2.4-1.3 2.9-0.2 2 0.8-0.7 3.2-1.6 5.4-2.2 2.2-0.5 6.7-1.9 10-3.1 19.1-6.8 51-16.8 51.4-16.1 0.3 0.4 1.3 1 2.3 1.4 0.9 0.3 2.3 2.8 3.2 5.4 0.8 2.6 3.1 9.3 5.1 14.8 2 5.5 4.7 12.9 6 16.5q0.7 1.9 1.4 3.7 0.6 1.9 1.3 3.8 0.7 1.9 1.4 3.7 0.7 1.9 1.4 3.8c1.7 4.7 3.8 10.4 4.6 12.8l1.6 4.3-6.5 12.7c-13.6 26.7-19.9 38.7-20.7 39.2-0.5 0.3-5.7 0.2-11.7-0.2-5.9-0.4-15.1-0.8-20.3-0.8-5.2-0.1-13-0.4-17.2-0.7l-7.7-0.6-4.5-5.6c-2.4-3.1-8.1-9.9-12.5-15.1-4.5-5.2-10.6-12.5-13.7-16.1l-5.4-6.6 4.5-9.9c2.5-5.5 5.4-11.7 6.5-13.9 4.2-8.8 10-21.6 10-22 0-0.9-4 0.2-15 4-5.8 2-11 3.8-11.5 3.9-0.6 0.1-3.5 1.1-6.5 2.1-3 1.1-5.7 1.9-6 2-0.3 0-4.1 1.4-8.4 2.9l-7.9 3-6.5-7c-3.6-3.8-12.4-13-19.5-20.4l-13-13.5 0.6-11.5c0.7-12.5 1.7-27 2.2-31 0.1-1.4 0.3-5.3 0.4-8.8 0-4.1 0.5-6.4 1.3-6.6 3.2-0.9 21.7-8 25.7-9.8 2.5-1.1 5-2.1 5.5-2.2 0.6-0.1 2-0.7 3.1-1.2 1.1-0.6 4.8-2.1 8.3-3.4l6.3-2.3-25.4-11-25.4-10.9-0.7-28.2-0.7-28.1 20.3-19.7c11.2-10.8 20.3-19.7 20.3-19.7zm255.9 32c-0.3 0.5-0.4 1.2-0.1 1.5 0.2 0.3 0.7-0.2 1-1.1 0.7-1.7 0.1-2-0.9-0.4zm-116.8 23.4l12.6 6.7 14.5-5.1c18.4-6.4 17.8-6.7 22.3 10.2l3.3 12.3 14.3 4.9c18 6.2 17.9 6 8.7 20-3.7 5.5-6.7 10.4-6.6 11 0 0.5 1.9 7.4 4.2 15.3 3.2 10.5 4 14.6 3.2 15.6-0.6 0.7-0.8 1.5-0.5 1.9 0.5 0.5-4 2-22.6 7.5-3 0.9-5.7 1.7-6 1.9-0.2 0.2-1.1 5.4-2 11.6-1 7.6-2 11.2-2.8 11.2-0.7 0-1.6 0.5-2 1.2-0.5 0.8-4.9-0.9-14.4-5.4l-13.6-6.4-12.9 6.4c-16.1 8-16 8-22.3-6.6l-4.5-10.4-12.8-7.4c-7.1-4.1-12.6-7.9-12.3-8.5 0.2-0.6 0-1.6-0.5-2.1-0.6-0.6 1-4.6 4.4-10.7l5.4-9.8-4.8-13.1c-2.8-7.9-4.4-13.9-4-15 0.4-1.1 5.9-4.2 13.7-7.8l13-6 4.4-13.6c3.2-9.7 5-13.7 6.2-14.1 1-0.2 1.8-0.9 1.8-1.4 0-0.5 5.7 2 12.6 5.7zm158.9 67.4c0.6 0.5 9.1 5 19 10.1 9.9 5.1 20.6 10.6 23.8 12.4l5.9 3.1-0.6 8.5c-0.4 4.7-0.9 17-1.3 27.4l-0.6 18.9-3.5 3.9c-1.9 2.1-6.5 6.2-10.1 9-3.6 2.9-8.9 7.2-11.8 9.7-18.9 16.8-18.8 16.7-22 14.2-1.4-1.2-3-2.1-3.6-2.1-0.5 0-3.7-1.3-7.1-2.9-3.4-1.6-11.3-5.2-17.6-8-6.3-2.9-12.3-5.6-13.3-6.1-2-1.2-2.2-0.3-0.6 3.7 0.6 1.5 1.2 3.5 1.4 4.3 0.2 0.8 2 6.2 4 12 2 5.8 3.8 11.2 4 12 0.2 0.8 1.1 3.5 2 6 0.9 2.5 1.8 5.2 2 6 0.2 0.8 0.8 2.8 1.4 4.3 0.6 1.6 1.1 3.6 1.1 4.5 0 1-4.6 5.8-10.3 10.9-5.6 5-14.7 13.5-20.2 18.8l-10 9.7-10.9-0.7c-6-0.4-11.6-0.8-12.5-1-0.9-0.1-6.9-0.6-13.4-1-6.4-0.4-12.5-0.8-13.5-1-0.9-0.2-3-0.4-4.5-0.4-1.5-0.1-2.9-0.7-3.2-1.4-0.2-0.6-4.9-13.5-10.6-28.5l-10.3-27.3 2.6-5.2c1.4-2.9 8.3-16.7 15.2-30.9 14.6-29.6 14.3-29.3 24.7-24 6.1 3.1 50.3 23 50.6 22.7 0.2-0.1-12.6-40.1-19.1-59.5-1-2.8-1.2-4.8-0.6-5.6 0.5-0.6 0.7-1.3 0.4-1.7-0.8-0.8 1.9-2.1 11.6-5.5 4.7-1.6 13-4.6 18.5-6.7 5.5-2 12.5-4.5 15.5-5.6q1.7-0.6 3.4-1.2 1.6-0.6 3.3-1.2 1.7-0.6 3.4-1.2 1.7-0.6 3.4-1.2c8.3-3.1 12.4-3.7 14-2.2zm-96.8 80.2c0.7 0.7 1.5 1 1.8 0.7 0.3-0.3-0.2-0.9-1.2-1.2-1.5-0.6-1.6-0.5-0.6 0.5z"/>
</svg>