<?xml version="1.0" standalone="no"?>
<!DOCTYPE svg PUBLIC "-//W3C//DTD SVG 1.1//EN" "http://www.w3.org/Graphics/SVG/1.1/DTD/svg11.dtd">
<svg xmlns="http://www.w3.org/2000/svg" width="410" height="478" viewBox="0 0 410 478"><path fill-rule="evenodd" d="m170.568 59-33.706 59H68.431C29.545 118 0 118.381 0 118.883c0 .485 15.146 27.373 33.659 59.75s33.662 59.355 33.666 59.952c.005.597-14.893 27.161-33.106 59.031C16.007 329.486.809 356.335.446 357.281-.174 358.896 3.921 359 68.257 359h68.47l33.734 59.051c18.554 32.478 34.134 58.915 34.621 58.75.488-.166 15.896-26.626 34.241-58.801l33.353-58.5 68.829-.5c57.529-.418 68.905-.728 69.292-1.889.254-.764.048-1.133-.458-.82-.661.408-65.905-111.931-68.117-117.286-.368-.89 66.786-118.408 67.909-118.838.478-.184.869-.859.869-1.5 0-.878-17.128-1.167-69.14-1.167h-69.14l-33.574-58.75C220.68 26.438 205.28 0 204.922 0s-15.817 26.55-34.354 59M.079 119.583c.048 1.165.285 1.402.604.605.289-.722.253-1.585-.079-1.917s-.568.258-.525 1.312"/></svg>