<svg version="1.2" xmlns="http://www.w3.org/2000/svg" viewBox="0 0 380 364" width="380" height="364"><style>.a{fill:#ff3131}.b{fill:#fff}</style><path fill-rule="evenodd" class="a" d="m82 18.3c-22 6.6-39.5 23.3-47.7 45.7l-2.8 7.5-0.3 102.3c-0.3 112.3-0.5 107.1 5.8 120.6 8.9 19.5 27.2 34.7 48.1 40.1 4.8 1.3 20.4 1.5 105.6 1.5 111.2 0 104.9 0.4 119.8-6.9 19.6-9.7 33.2-26.5 38.5-47.7 2-7.8 2-10.6 1.8-108l-0.3-99.9-3.1-8.8c-3.9-10.9-8.2-18.1-15.7-26.3-9.1-9.9-23.9-18.5-36.7-21.4-2.8-0.6-42.4-0.9-105-0.9h-100.5z"/><path fill-rule="evenodd" class="b" d="m130.5 82.7c9.5 4.4 15.1 12.8 15.6 23.3 0.3 7.3-1.2 12.3-5.4 17.6-1.7 2.2-3 4-2.8 4.1 2.6 2.3 9.1 7.4 9.4 7.4 0.2 0 0.5-10.3 0.6-22.8l0.2-22.7 1.8-1.5c1.8-1.4 4.2-1.5 80.2-1.5 77 0 78.4 0.1 79.9 1.5 0.8 0.9 1.7 2.3 2 3.3 0.2 1 0.3 22.8 0.2 48.4-0.2 44.6-0.3 46.7-1.7 48.3l-1.5 1.6h-76.3c-68.9 0-76.4 0.1-76.8 1.2-0.3 0.7-0.5 14.5-0.5 30.8 0 25.7-0.1 29.9-1.2 32-4.1 8.1-13.1 11.4-21.7 7.9-5.4-2.2-7.5-6.2-10.2-19.1-1.2-6-2.4-11.3-2.5-11.7-0.3-0.9-1.6 3.5-2.8 10-2.1 10.8-2.6 12.5-4.4 15.7-1.4 2.5-2.9 3.8-5.9 5.2-8.5 3.9-17.2 1.1-21.5-6.9-1.5-2.9-1.7-4.6-1.9-18.4l-0.3-15.1-2.4-0.5c-3.4-0.8-7.5-2.9-9.5-5.1-3.6-3.8-4.1-6.6-4.1-22 0-7.9 0.3-16.5 0.8-19 1.1-7.1 5.5-15 12.1-21.7 3.1-3.2 6.4-7.4 7.4-9.4 3-5.8 8.6-11.9 13.5-14.7 0.8-0.4 0.5-1.2-1.6-3.7-5.8-6.8-8.3-14.9-6.8-22.2 2.4-11.7 9.9-19.7 21.2-22.5 4.7-1.2 11.6-0.3 16.9 2.2zm-17.8 10.8c-6.9 3.5-10.1 9.4-9 16.6 0.6 4.3 2 6.7 5.6 9.8 5.5 4.7 10.9 5.5 17.2 2.5 9.3-4.4 12.4-15.5 6.6-23.9-2.6-3.8-9-7.3-13.3-7.3-1.4 0-4.6 1.1-7.1 2.3zm47.1 4.4c-0.8 0.8-0.6 27 0.2 27.5 0.4 0.3 1.2-0.2 1.7-1 2.9-4 9.1-4.2 16.4-0.3 4.9 2.5 7.3 7.4 7.3 14.4v4.9l-13.9 15.2c-16.2 17.9-16.8 18.6-15.2 19.6 0.6 0.4 31.2 0.6 73 0.5l71.9-0.2v-80.7l-70.5-0.2c-38.7-0.1-70.6 0-70.9 0.3zm81.1 11.8c30.1 0 29.9 0 29.9 5.1 0 2.7-1.5 4.7-4.1 5.3-0.9 0.2-13.2 0.3-27.3 0.2l-25.6-0.2-1.5-1.8c-1.9-2.4-1.9-5.1 0.1-7.1 1.4-1.4 2.5-1.5 28.5-1.5zm-72.2 22.9c-0.5 0.1-3.6 3.5-7 7.3-9.9 11.7-11.2 12.9-13.7 12.9-2.6 0-3.5-0.9-7.2-7.2-3.9-6.6-8.4-9.6-16.6-11.2-11-2.1-22.1 3.8-27.1 14.4l-2 4.3-0.2 47.6c-0.3 53.2-0.5 51.3 4.7 51.3 2.9 0 4.9-1.5 5.4-4.1 0.2-0.9 1.1-5.7 2-10.5 4.8-25.8 7.8-39.7 9-40.9 1.6-1.9 5.8-1.8 7.5 0 0.7 0.8 1.8 3.7 2.4 6.4 1.3 6.3 7.7 39.3 8.4 43.4 0.3 1.8 1.2 3.8 2 4.6 2.1 1.9 6 1.7 7.7-0.4 1.4-1.7 1.4-4 1.4-40.1v-38.4l9.8-11c5.3-6 11.9-13.4 14.6-16.4 2.7-3.1 4.9-5.9 4.9-6.3 0-3-3.7-6.5-6-5.7zm44.5 0.2h27.4c24.4 0 27.5 0.1 28.8 1.2 1.7 1.6 1.8 5.5 0.1 7.4-1.2 1.3-3.1 1.4-28.4 1.4-23.6 0-27.3-0.2-28.3-1.2-1.9-2-2.3-4.8-0.9-6.9zm29.1 22.5c25.1 0.2 26.4 0.2 27.5 1.7 1.5 2.1 1.3 6.1-0.4 7.6-1.3 1.1-4.1 1.3-28.5 1.1l-27.2-0.2-1.6-2.1c-1.9-2.6-1.1-5.8 1.8-7.3 1.5-0.8 8.1-1 28.4-0.8zm-161.4 15.3l-2.3 4.7v15.9c0 14.5 0.1 16.1 1.4 17.2 0.8 0.7 2 1.3 2.7 1.3 1.1 0 1.3-2 1.3-21.9 0-12.1-0.2-21.9-0.4-21.9-0.1 0-1.4 2.1-2.7 4.7zm114.7 58.7c4 5.8 4.5 13.9 1.3 19.5-0.8 1.4-1.4 2.7-1.3 2.8 0.2 0.1 1.5 0.9 3 1.9 1.4 1 3.7 3 5.1 4.5l2.4 2.7 2.6-2.6c1.4-1.5 3.8-3.5 5.2-4.6l2.6-2-1.7-3.6c-1.9-4.2-2.2-10.8-0.6-14.6 1.7-3.9 5.9-8.3 9.7-10 6.7-3 16.2-1.3 20.9 3.8 5.2 5.5 6.8 14.4 3.6 20.9l-1.7 3.5 1.9 1.2c1 0.6 3.4 2.7 5.2 4.5l3.3 3.4 3.6-3.4c2-1.8 4.4-3.8 5.4-4.5l1.8-1.1-1.6-2.8c-7-11.8 2.3-27 16.5-27 12.3 0 21 11.5 17.6 23.2-0.7 2.4-1.6 4.8-2.1 5.4-0.7 0.8-0.4 1.3 1 2.5 9.2 7.3 11.2 10.9 11.2 20.4 0 5.8-0.3 7.3-1.5 8.6l-1.5 1.6h-77.4c-89.7 0-80.5 1-79.8-8.4q0.9-12.6 12.7-21.6l2.5-1.9-1.9-4.6c-2.2-5.2-2.4-7.9-0.9-12.2 2.5-6.7 7.9-11.6 14.3-12.9 6.6-1.2 15 2.1 18.6 7.4zm-17.9 5.7c-4.9 5-1.5 13.1 5.5 13.1 2.5 0 3.6-0.4 5.5-2.3 2.1-2.1 2.3-2.7 1.9-5.9-0.5-4.7-3.1-7.1-7.5-7.1-2.4 0-3.6 0.5-5.4 2.2zm50 0c-1.7 1.8-2.2 3-2.2 5.5 0 2.5 0.5 3.6 2.2 5.4 5 5 13.2 1.6 13.2-5.4 0-2.5-0.5-3.7-2.3-5.5-1.8-1.7-2.9-2.2-5.4-2.2-2.5 0-3.7 0.5-5.5 2.2zm50.1-0.1c-3.1 3.1-3.2 7.4-0.4 10.9 1.7 2 2.6 2.3 5.5 2.3 2.8 0 3.9-0.4 5.8-2.3 2.1-2.1 2.3-2.7 1.9-5.9-0.2-2-1-4.1-1.9-5-0.9-0.9-3-1.7-5-1.9-3.2-0.4-3.8-0.2-5.9 1.9zm-100.4 24.6c-3.3 0.8-8.2 4.4-10.4 7.5-4.1 6-4.7 5.8 16.2 5.8 20.7 0 20.2 0.1 15.9-5.5-3-3.9-6.6-6.5-10.5-7.6-2.8-0.8-8.5-0.9-11.2-0.2zm50 0c-5.1 1.2-12.7 8.4-12.7 11.9 0 1.3 1.2 1.4 18.5 1.4 20.7 0 20.2 0.1 15.9-5.5-3-3.9-6.6-6.5-10.5-7.6-2.8-0.8-8.5-0.9-11.2-0.2zm49.2 0.4c-4.8 1.9-7.3 3.7-9.6 7-4.1 6.1-4.7 5.9 16.1 5.9 15.5 0 18.5-0.2 18.5-1.1 0-1.7-4.7-7.5-7.6-9.5-4.8-3.2-12.4-4.2-17.4-2.3z"/></svg>