<svg version="1.2" xmlns="http://www.w3.org/2000/svg" viewBox="0 0 380 364" width="380" height="364"><style>.a{fill:#ff3131}.b{fill:#fff}</style><path fill-rule="evenodd" class="a" d="m82 18.3c-22 6.6-39.5 23.3-47.7 45.7l-2.8 7.5-0.3 102.3c-0.3 112.3-0.5 107.1 5.8 120.6 8.9 19.5 27.2 34.7 48.1 40.1 4.8 1.3 20.4 1.5 105.6 1.5 111.2 0 104.9 0.4 119.8-6.9 19.6-9.7 33.2-26.5 38.5-47.7 2-7.8 2-10.6 1.8-108l-0.3-99.9-3.1-8.8c-3.9-10.9-8.2-18.1-15.7-26.3-9.1-9.9-23.9-18.5-36.7-21.4-2.8-0.6-42.4-0.9-105-0.9h-100.5z"/><path fill-rule="evenodd" class="b" d="m200.6 74.8c13.7 2.9 26.3 12 33.7 24.5 10.1 16.9 9.4 38.9-1.8 55.2-3.1 4.4-10.4 11.6-14.6 14.2l-3.1 2 1.9 0.6c6.9 2.2 18.9 9.1 25.7 14.6 2.9 2.5 4 3 6.5 3.5 3.5 0.6 5.7 2.4 6 4.9l0.6 3.4c0.1 1 1.3 3.1 2.9 5.1 10.3 13.3 18.4 32.6 21 50 0.9 6.1 1.5 17.9 1 19.9-0.9 3.2-1.6 3.4-13.9 3.4h-10.8l-3.9 4.1-8.5-0.3c-18-0.7-34.8 2.4-47.6 8.8-4.9 2.5-7.2 2.6-10.5 0.6-4.5-2.8-14-6.1-21.9-7.6-8.6-1.7-16.9-2.2-26.4-1.9-8.6 0.4-8.8 0.4-10.5-0.8-0.9-0.6-1.8-1.5-2-2-0.3-0.8-1.3-0.9-11.5-0.9h-11.3l-1.3-1.3c-1.3-1.3-1.3-1.5-1.3-7.2 0-21 8.4-46.1 21.7-64.8 2.5-3.6 2.9-4.5 3.1-7 0.3-3.9 1.9-5.6 6.2-6.4 1.6-0.4 3.2-0.9 3.5-1.2 0.9-1.1 6.4-5.1 10.9-8 5.2-3.3 9.9-5.7 15.1-7.6 2-0.8 3.9-1.6 4.2-1.8 0.2-0.2-0.9-1.1-2.5-2-3.5-2.1-11.2-9.3-14.1-13.4-7.2-10.1-10.6-22.8-9.3-34.6 1.4-12.9 6.2-23 14.9-31.8 6.9-6.9 14.6-11.3 24.1-13.7 5.8-1.5 17.7-1.7 23.8-0.5zm-18.7 9.8c-16 3.4-28.2 14.6-32.5 29.7-3 10.4-1.3 23.2 4.3 32.4 7.8 12.8 20.8 20.1 35.8 20 19.1 0 34.8-11.9 40.1-30.4 1.7-5.8 1.6-15.9 0-21.8-3.3-11.6-12-22-22.1-26.4-6.3-2.8-9.8-3.6-16.8-3.8-3.7-0.1-7.7 0.1-8.8 0.3zm-1.5 93.3c-5.3 0.7-11.6 2.3-16.7 4.3-4.8 1.9-12.8 6.1-12.8 6.8 0 0.2 0.9 0.4 1.9 0.4 6.7 0 23.3 4.1 31.6 7.9l5 2.2 5.1-2.2c8-3.6 21-7 29.7-7.7 2.4-0.2 3.8-0.5 3.7-0.9-0.3-0.9-11.4-6.2-16.5-7.8-2.6-0.9-6.5-1.9-8.6-2.3-4.7-1-17.7-1.4-22.4-0.7zm-44.2 21.5l-1.9 0.2v34.8 34.9l8.2 0.1c9.3 0 17.5 1.1 26.5 3.3 6.7 1.6 16.3 4.9 18.8 6.5 1.6 0.9 1.6 0.9 3.2-0.1 2.7-1.7 11.7-5 17.5-6.5 9.2-2.4 16.2-3.2 26.7-3.3h9.4v-69.7l-3.6-0.3c-7.2-0.8-20.7 0.6-30.2 3-5.4 1.4-14.1 4.6-16.8 6.3-3 1.8-5.1 1.8-9.6-0.3-10.9-5-22-7.7-36-8.8-6.8-0.5-8.6-0.5-12.2-0.1zm-15.4 23.2c-6.6 12.5-10.3 25.4-11.5 39.5l-0.3 3.9h14.7v-24.2c0-13.3-0.1-24.1-0.2-24.1-0.1 0-1.3 2.2-2.7 4.9zm134.4 19.1v24.3h14.6v-2.2c0-7.3-2.9-20.7-6.8-30.8-2-5.3-6.2-13.8-7.3-15.1-0.3-0.3-0.5 9.5-0.5 23.8z"/></svg>